<?xml version="1.0" standalone="no"?>
<!DOCTYPE svg PUBLIC "-//W3C//DTD SVG 1.1//EN" "http://www.w3.org/Graphics/SVG/1.1/DTD/svg11.dtd" >
<svg xmlns="http://www.w3.org/2000/svg">
<metadata>
<json>
<![CDATA[
{
	"fontFamily": "MeniconCategories",
	"majorVersion": 1,
	"minorVersion": 0,
	"version": "Version 1.0",
	"fontId": "MeniconCategories",
	"psName": "MeniconCategories",
	"subFamily": "Regular",
	"fullName": "MeniconCategories",
	"description": "Font generated by IcoMoon."
}
]]>
</json>
</metadata>
<defs>
<font id="MeniconCategories" horiz-adv-x="1024">
<font-face units-per-em="1024" ascent="960" descent="-64" />
<missing-glyph horiz-adv-x="1024" />
<glyph unicode="&#x20;" horiz-adv-x="512" d="" />
<glyph unicode="&#xe900;" glyph-name="carcharging-line" data-tags="carcharging-line categoryid:343" d="M597.333 917.334c0 11.782-9.553 21.333-21.333 21.333s-21.333-9.551-21.333-21.333v-85.333h-128v85.333c0 11.782-9.551 21.333-21.333 21.333s-21.333-9.551-21.333-21.333v-85.333h-21.333c-11.316 0-22.168-4.495-30.17-12.497s-12.497-18.854-12.497-30.17c0-45.264 17.981-88.673 49.987-120.68 26.936-26.936 61.949-43.938 99.346-48.649v-236.005c0-22.63 8.99-44.335 24.994-60.339s37.709-24.994 60.339-24.994c11.78 0 21.333 9.553 21.333 21.333s-9.553 21.333-21.333 21.333c-11.315 0-22.17 4.497-30.17 12.497s-12.497 18.854-12.497 30.17v236.005c37.397 4.711 72.41 21.713 99.345 48.649 32.009 32.006 49.988 75.416 49.988 120.68 0 11.316-4.497 22.168-12.497 30.17s-18.854 12.497-30.17 12.497h-21.333v85.333zM400.157 698.824c-24.005 24.005-37.49 56.562-37.49 90.51h256c0-33.948-13.487-66.505-37.491-90.51s-56.563-37.49-90.509-37.49c-33.946 0-66.505 13.486-90.51 37.49zM404.61 426.667c11.782 0 21.333-9.553 21.333-21.333s-9.551-21.333-21.333-21.333h-68.261c-5.196-0.004-10.22-1.903-14.115-5.342-3.897-3.443-6.403-8.188-7.048-13.346l-13.681-109.312h420.995l-13.679 109.308c-0.644 5.158-3.153 9.907-7.049 13.35-3.895 3.439-8.913 5.338-14.11 5.342h-110.933c-11.785 0-21.333 9.553-21.333 21.333s9.549 21.333 21.333 21.333h110.933c15.595-0.004 30.66-5.705 42.351-16.026 11.691-10.325 19.209-24.559 21.141-40.034l12.617-100.8 78.588 47.151c10.103 6.063 23.206 2.786 29.269-7.317 6.063-10.099 2.786-23.206-7.317-29.265l-64.375-38.63c8.030-4.625 15.488-10.321 22.157-16.986 20.002-20.006 31.241-47.138 31.241-75.426v-85.333c0-16.973-6.741-33.254-18.743-45.257-6.814-6.814-15.006-11.93-23.923-15.083v-24.994c0-16.973-6.741-33.254-18.743-45.257s-28.284-18.743-45.257-18.743c-16.973 0-33.254 6.741-45.257 18.743s-18.743 28.284-18.743 45.257v21.333h-341.333v-21.333c0-16.973-6.743-33.254-18.745-45.257s-28.281-18.743-45.255-18.743c-16.974 0-33.252 6.741-45.255 18.743s-18.745 28.284-18.745 45.257v24.994c-8.915 3.153-17.108 8.269-23.921 15.083-12.002 12.002-18.745 28.284-18.745 45.257v85.333c0 28.288 11.238 55.42 31.242 75.426 6.668 6.669 14.129 12.361 22.16 16.99l-64.374 38.626c-10.103 6.059-13.379 19.166-7.317 29.265 6.062 10.103 19.166 13.38 29.269 7.317l78.588-47.151 12.616 100.796c1.935 15.475 9.454 29.713 21.143 40.038 11.691 10.321 26.755 16.021 42.351 16.026h68.267zM791.923 194.59c-11.925 11.921-28.066 18.654-44.915 18.743h-470.011c-16.852-0.090-32.995-6.822-44.918-18.743-12.002-12.002-18.745-28.284-18.745-45.257v-21.333h85.333c11.782 0 21.333-9.553 21.333-21.333s-9.551-21.333-21.333-21.333h-85.333v-21.333c0-5.658 2.248-11.085 6.249-15.087 4-3.998 9.427-6.246 15.085-6.246h554.667c5.658 0 11.085 2.249 15.087 6.246 3.998 4.002 6.246 9.429 6.246 15.087v21.333h-85.333c-11.78 0-21.333 9.553-21.333 21.333s9.553 21.333 21.333 21.333h85.333v21.333c0 16.973-6.741 33.254-18.743 45.257zM725.333-0v-21.333c0-5.658 2.249-11.085 6.246-15.087 4.002-3.998 9.429-6.246 15.087-6.246s11.085 2.249 15.087 6.246c3.998 4.002 6.246 9.429 6.246 15.087v21.333h-42.667zM298.667-21.333v21.333h-42.667v-21.333c0-5.658 2.248-11.085 6.249-15.087 4-3.998 9.427-6.246 15.085-6.246s11.084 2.249 15.085 6.246c4.001 4.002 6.249 9.429 6.249 15.087z" />
<glyph unicode="&#xe901;" glyph-name="carcharging" data-tags="carcharging categoryid:343" d="M465.301 588.168c-2.62 3.629-6.315 6.343-10.56 7.758-36.101 12.068-67.499 35.171-89.762 66.047s-34.265 67.963-34.313 106.028c0 8.487 3.372 16.626 9.373 22.627s14.141 9.373 22.627 9.373c5.658 0 11.084 2.248 15.085 6.249s6.249 9.427 6.249 15.085v74.667c0 11.316 4.495 22.168 12.497 30.17s18.854 12.497 30.17 12.497c11.315 0 22.17-4.495 30.17-12.497s12.497-18.854 12.497-30.17v-74.667c0-5.658 2.249-11.084 6.246-15.085 4.002-4.001 9.429-6.249 15.087-6.249h42.667c5.658 0 11.085 2.248 15.087 6.249 3.998 4 6.246 9.427 6.246 15.085v74.667c0 11.316 4.497 22.168 12.497 30.17s18.854 12.497 30.17 12.497c11.315 0 22.17-4.495 30.17-12.497s12.497-18.854 12.497-30.17v-74.667c0-5.658 2.249-11.084 6.246-15.085 4.002-4.001 9.429-6.249 15.087-6.249 8.486 0 16.627-3.372 22.626-9.373 6.003-6.001 9.374-14.141 9.374-22.627-0.055-38.063-12.058-75.148-34.321-106.022s-53.658-53.978-89.754-66.052c-4.245-1.414-7.94-4.128-10.56-7.758s-4.028-7.991-4.032-12.466v-149.035c0-11.315-4.497-22.17-12.497-30.17s-18.854-12.497-30.17-12.497c-11.315 0-22.17 4.497-30.17 12.497s-12.497 18.854-12.497 30.17v149.035c-0.004 4.476-1.412 8.837-4.032 12.466zM863.646 361.391c10.978-2.739 20.42-9.719 26.249-19.418s7.561-21.312 4.826-32.29c-2.735-10.978-9.719-20.42-19.418-26.249l-34.859-20.949c-2.513-1.506-4.685-3.516-6.387-5.901s-2.897-5.094-3.503-7.962c-0.61-2.867-0.623-5.828-0.034-8.7 0.585-2.871 1.758-5.589 3.439-7.987 12.625-17.937 19.392-39.339 19.371-61.269v-42.667c0-16.973-6.741-33.254-18.743-45.257s-28.284-18.743-45.257-18.743h-554.666c-16.974 0-33.252 6.741-45.255 18.743s-18.745 28.284-18.745 45.257v42.667c-0.005 21.845 6.714 43.162 19.243 61.056 1.685 2.394 2.859 5.111 3.448 7.983 0.59 2.867 0.582 5.828-0.023 8.695-0.605 2.863-1.792 5.577-3.491 7.962s-3.869 4.399-6.378 5.909l-34.901 20.949c-4.91 2.833-9.207 6.613-12.64 11.123s-5.932 9.66-7.352 15.147c-1.42 5.487-1.734 11.2-0.921 16.811s2.735 10.999 5.655 15.859c2.919 4.855 6.778 9.084 11.349 12.437 4.572 3.349 9.765 5.756 15.277 7.078 5.512 1.318 11.231 1.527 16.825 0.614s10.949-2.931 15.754-5.939l21.717-12.8c3.055-1.835 6.521-2.876 10.081-3.025 3.561-0.154 7.102 0.593 10.301 2.163s5.954 3.913 8.013 6.822c2.059 2.91 3.357 6.289 3.775 9.826l5.333 45.269c2.438 20.787 12.431 39.953 28.078 53.854s35.856 21.564 56.786 21.538h36.736c11.316 0 22.168-4.497 30.17-12.497s12.497-18.854 12.497-30.17c0-11.315-4.495-22.17-12.497-30.17s-18.854-12.497-30.17-12.497h-17.749c-5.248 0.038-10.324-1.86-14.26-5.333s-6.454-8.273-7.073-13.483l-8.789-74.667c-0.357-3.004-0.071-6.054 0.84-8.939 0.911-2.889 2.426-5.547 4.443-7.804 2.018-2.253 4.493-4.053 7.26-5.282 2.767-1.225 5.764-1.847 8.79-1.826h330.41c3.029-0.021 6.025 0.602 8.789 1.826 2.769 1.229 5.244 3.029 7.262 5.282 2.018 2.257 3.533 4.915 4.442 7.804 0.913 2.884 1.199 5.935 0.841 8.939l-8.789 74.667c-0.619 5.21-3.136 10.010-7.074 13.483-3.934 3.473-9.011 5.372-14.259 5.333h-17.749c-11.315 0-22.165 4.497-30.17 12.497-8 8-12.497 18.854-12.497 30.17s4.497 22.17 12.497 30.17c8.004 8 18.854 12.497 30.17 12.497h36.864c20.902-0.004 41.075-7.676 56.695-21.564 15.616-13.888 25.596-33.028 28.041-53.786l5.205-45.099c0.418-3.537 1.715-6.916 3.776-9.826s4.813-5.252 8.013-6.822c3.2-1.57 6.741-2.317 10.3-2.163 3.563 0.149 7.027 1.19 10.082 3.025l21.717 12.8c9.698 5.824 21.312 7.561 32.29 4.826zM320 21.334h-85.333c-5.658 0-11.084-2.249-15.085-6.246-4.001-4.002-6.249-9.429-6.249-15.087v-21.333c0-16.973 6.743-33.254 18.745-45.257s28.281-18.743 45.255-18.743c16.974 0 33.253 6.741 45.255 18.743s18.745 28.284 18.745 45.257v21.333c0 5.658-2.248 11.085-6.249 15.087-4 3.998-9.427 6.246-15.085 6.246zM704 21.334h85.333c5.658 0 11.085-2.249 15.087-6.246 3.998-4.002 6.246-9.429 6.246-15.087v-21.333c0-16.973-6.741-33.254-18.743-45.257s-28.284-18.743-45.257-18.743c-16.973 0-33.254 6.741-45.257 18.743s-18.743 28.284-18.743 45.257v21.333c0 5.658 2.249 11.085 6.246 15.087 4.002 3.998 9.429 6.246 15.087 6.246z" />
<glyph unicode="&#xe902;" glyph-name="carbon-offsetting-line" data-tags="carbon offsetting-line categoryid:344" d="M603.191 894.623c-33.438 0.614-66.94-4.013-99.264-13.876-59.61-18.187-112.608-53.384-152.493-101.269s-64.92-106.375-72.032-168.288c-7.111-61.914 4.012-124.556 32.002-180.236 5.292-10.53 1.048-23.351-9.479-28.642-10.527-5.295-23.35-1.050-28.642 9.476-31.722 63.108-44.328 134.101-36.269 204.27s36.432 136.457 81.636 190.727c45.204 54.27 105.27 94.159 172.827 114.771 67.554 20.612 139.657 21.049 207.458 1.258s128.346-58.949 174.204-112.667c45.858-53.718 75.034-119.657 83.942-189.723s-2.833-141.21-33.788-204.694c-30.955-63.484-79.774-116.548-140.463-152.678-10.125-6.029-23.219-2.705-29.244 7.415-6.029 10.125-2.705 23.219 7.415 29.244 53.551 31.881 96.627 78.703 123.938 134.72 27.315 56.017 37.679 118.788 29.815 180.611-6.938 54.552-27.797 106.269-60.407 150.243-4.8-11.824-10.799-23.162-17.924-33.831-14.217-21.293-32.614-39.474-54.071-53.44-4.971-3.235-11.063-4.254-16.815-2.815-23.036 5.763-47.241 0.116-64.823-7.86-0.789-0.358-1.553-0.715-2.291-1.071 3.908-6.761 7.211-14.535 9.822-21.435 3.025-8.002 5.508-15.882 7.223-21.684l0.119-0.413c1.267 0.006 2.995 0.158 5.299 0.62 3.063 0.612 5.99 1.574 8.222 2.432 1.084 0.417 1.929 0.781 2.453 1.017l0.525 0.241c8.213 4.1 18.086 2.47 24.58-4.020 7.543-7.546 12.271-16.56 13.948-26.503 1.626-9.643 0.171-18.871-2.47-26.947-5.107-15.624-15.821-30.356-25.835-42.279-7.957-9.476-16.785-18.658-24.009-26.163-0.354-0.375-1.020-1.075-1.843-1.941-2.633-2.769-6.878-7.232-7.778-8.218 1.476-1.293 3.221-2.859 4.898-4.535 4.006-4.006 11.238-12.058 12.25-23.945 1.088-12.779-5.372-23.155-13.047-30.865-11.251-11.631-24.324-21.303-38.673-28.651-1.877-15.812-6.959-29.257-14.652-40.414-9.792-14.204-22.827-23.296-35.558-29.082-24.401-11.089-50.176-11.081-57.975-11.081-8.585 0-15.505 4.062-19.132 6.746-4.049 3.004-7.612 6.72-10.59 10.27-6.020 7.168-11.819 16.247-16.755 25.126-3.341 6.012-9.297 23.637-13.884 37.214-2.274 6.741-4.215 12.48-5.329 15.305 0 12.535 10.556 34.176 13.79 40.589 0.414 1.105 0.657 1.924 0.789 2.517-0.243 0.58-0.721 1.626-1.626 3.191-1.997 3.465-4.941 7.556-8.294 11.733-3.29 4.092-10.453 11.87-13.001 14.626l-0.183 0.188c-4.002 3.998-6.276 9.451-6.276 15.108 0 12.366-2.372 17.504-3.708 19.412-0.93 1.333-2.449 2.754-7.083 3.784-5.274 1.172-12.442 1.341-22.622 0.888-2.697-0.119-5.679-0.29-8.845-0.47-7.603-0.433-16.26-0.926-24.448-0.926-16.277 0-29.584 5.624-39.664 14.62-9.637 8.599-15.363 19.387-18.839 28.717-3.51 9.421-5.165 18.536-5.972 25.087-0.41 3.331-0.66 13.196-0.668 17.328 0.163 3.234 0.488 7.768 1.122 13.215 1.259 10.814 3.794 25.627 8.978 41.165 10.164 30.462 32.494 68.76 80.259 78.286 38.315 7.641 63.228 5.181 79.296-4.454 8.435-5.056 13.598-11.636 16.461-17.956 7.091-4.332 18.807-6.208 36.902-3.171 7.932 1.331 15.731 3.156 23.851 5.056 3.823 0.876 14.865 3.401 19.017 4.182 0.836 8.847 1.609 19.872 1.609 30.292 0 5.523-0.226 10.257-0.61 14.112-14.993-4.632-30.746-4.675-44.847 2.117-18.923 9.114-29.402 27.855-31.441 49.771-2.193 22.856 13.052 39.475 26.419 49.681 9.54 7.284 20.971 13.554 32.593 18.872zM694.357 879.608c-0.546-0.124-1.156-0.264-1.818-0.418-3.426-0.797-8.358-1.993-14.281-3.57-11.904-3.171-27.52-7.805-42.829-13.72-15.59-6.025-29.53-12.878-38.942-20.061-4.659-3.558-7.36-6.565-8.742-8.781-1.199-1.921-1.114-2.725-1.097-2.906l0.009-0.104c1.007-10.868 5.18-14.202 7.475-15.308 2.927-1.409 9.655-2.463 20.395 2.907 8.017 4.010 18.935 5.845 29.338-0.218 8.811-5.135 12.915-13.605 14.925-19.128 4.134-11.367 4.954-26.117 4.954-38.231 0-12.887-0.986-26.023-1.937-35.76-0.478-4.911-0.96-9.050-1.318-11.978-0.183-1.466-0.337-2.633-0.444-3.447l-0.132-0.951-0.034-0.265c-1.502-10.509-10.522-18.433-21.137-18.433-4.561 0-11.439-1.239-21.803-3.613-1.92-0.439-3.942-0.913-6.046-1.406-8.273-1.939-17.818-4.175-27.23-5.755-22.421-3.764-54.473-5.857-77.35 17.022-2.756 2.757-4.681 6.191-5.611 9.911-3.349 1.628-15.761 5.396-48.414-1.116-25.6-5.105-39.953-25.437-48.131-49.947-3.987-11.948-6.037-23.707-7.071-32.593-0.512-4.403-0.764-8.001-0.887-10.437-0.353-6.979 2.031-20.060 4.007-25.365 2.010-5.396 4.525-9.334 7.265-11.779 2.296-2.049 5.502-3.788 11.256-3.788 6.955 0 13.495 0.375 20.48 0.777 3.49 0.201 7.095 0.408 10.918 0.578 10.458 0.464 22.545 0.633 33.775-1.863 11.87-2.638 24.098-8.554 32.789-20.977 6.818-9.751 10.142-21.662 11.106-35.040 2.893-3.154 6.605-7.357 10.359-12.033 4.023-5.009 8.461-11.012 11.998-17.148 3.063-5.312 7.462-14.042 7.462-23.625 0-12.433-11.477-37.214-14.694-43.58 0.026-0.115-0.013-0.043-0.055 0.030-0.064 0.124-0.128 0.247 0.055-0.427 0.576-2.074 2.001-6.485 3.311-9.796 2.607-6.613 6.327-14.477 10.505-21.986 4.237-7.62 10.061-15.859 13.666-20.156 8.725 0.23 23.044 1.382 35.844 7.202 7.437 3.379 13.658 8.034 18.078 14.451 4.335 6.289 7.927 15.676 7.927 30.285 0 8.734 5.325 16.589 13.44 19.819 12.851 5.12 24.55 12.736 34.419 22.396l-1.003 0.875c-1.617 1.404-3.836 3.332-5.901 5.393-3.674 3.669-11.652 12.25-11.652 25.054 0 6.123 2.291 10.957 3.558 13.338 1.485 2.799 3.294 5.346 4.924 7.45 3.255 4.213 7.505 8.824 11.691 13.242 2.099 2.216 4.258 4.461 6.451 6.741 7.087 7.372 14.528 15.11 21.457 23.365 8.546 10.173 14.532 19.121 17.331 26.362-11.166-1.889-30.178-2.554-44.493 11.759-2.714 2.715-4.646 6.113-5.589 9.834l-0.026 0.097-0.107 0.408-0.448 1.68c-0.401 1.477-0.998 3.618-1.758 6.198-1.536 5.203-3.686 11.996-6.212 18.668-2.607 6.893-5.248 12.675-7.573 16.384l-0.158 0.245c-2.701 0.816-5.739 2.251-8.593 4.774-8.414 7.442-8.239 17.437-6.75 22.934 1.28 4.724 3.776 8.132 5.129 9.823 1.613 2.022 3.405 3.795 5.073 5.284 6.447 5.756 16.265 11.857 27.622 17.010 20.651 9.369 50.931 17.635 82.978 12.421 13.641 10.050 25.446 22.407 34.88 36.533 9.715 14.55 16.73 30.709 20.732 47.702-35.759 35.159-79.356 61.494-127.317 76.758zM0 318.801v-341.333c0-11.78 9.551-21.333 21.333-21.333h170.667c11.782 0 21.333 9.553 21.333 21.333v34.325c42.272-14.31 79.194-27.29 111.655-38.699 42.684-15.006 77.69-27.311 107.136-36.416 57.711-17.847 99.648-25.365 144.678-17.993 44.032 7.211 89.050 28.412 153.434 62.396 17.562 9.276 36.685 19.567 57.796 30.929 57.233 30.81 129.088 69.491 224.179 117.039 5.649 2.82 9.754 8 11.213 14.14 1.463 6.14 0.132 12.612-3.639 17.677-17.011 22.861-40.627 39.949-67.657 48.96-27.034 9.007-56.179 9.506-83.503 1.429l-157.21-52.181c-0.977 5.67-2.701 11.204-5.15 16.444-4.006 8.572-9.847 16.162-17.105 22.234s-15.761 10.475-24.905 12.902c-8.474 2.249-17.306 2.748-25.967 1.481h-117.449c-53.73 52.19-125.014 82.671-200.087 85.321-0.251 0.009-0.502 0.013-0.753 0.013h-106.667v21.333c0 11.785-9.551 21.333-21.333 21.333h-170.667c-11.782 0-21.333-9.549-21.333-21.333zM665.344 135.019c-1.028-1.387-2.223-2.654-3.554-3.772-2.475-2.065-5.367-3.563-8.478-4.39-3.115-0.828-6.37-0.96-9.54-0.388-1.246 0.222-2.509 0.333-3.772 0.333h-234.667c-11.782 0-21.333-9.549-21.333-21.333 0-11.78 9.551-21.333 21.333-21.333h232.956c8.661-1.267 17.493-0.768 25.967 1.485 9.143 2.423 17.647 6.831 24.905 12.902 4.173 3.49 7.876 7.479 11.034 11.874l180.847 60.036c18.859 5.508 38.95 5.129 57.591-1.084 10.351-3.452 19.977-8.606 28.51-15.202-83.072-41.975-147.814-76.83-199.829-104.828-20.941-11.273-39.821-21.436-56.998-30.502-65.003-34.317-104.209-52.096-140.407-58.022-35.196-5.764-69.495-0.572-125.18 16.649-29.231 9.041-62.864 20.873-104.464 35.507-35.693 12.557-77.252 27.179-126.93 43.874v197.978h106.283c66.976-2.462 130.419-30.707 177.062-78.844 4.019-4.147 9.549-6.49 15.322-6.49h128c1.263 0 2.526 0.115 3.772 0.337 3.17 0.567 6.426 0.435 9.54-0.388 3.11-0.828 6.003-2.325 8.478-4.395 2.47-2.065 4.454-4.646 5.82-7.565 1.361-2.918 2.069-6.101 2.069-9.323 0-2.509-0.431-4.992-1.263-7.347-1.314-1.754-2.351-3.703-3.072-5.769zM170.667 297.468v-298.667h-128v298.667h128z" />
<glyph unicode="&#xe903;" glyph-name="carbon-offsetting" data-tags="carbon offsetting categoryid:344" d="M386.219 362.202c4.846 2.82 9.088 6.566 12.485 11.025 3.397 4.463 5.882 9.545 7.312 14.967 1.431 5.419 1.779 11.068 1.024 16.623s-2.595 10.91-5.419 15.753c-24.059 41.434-37.407 88.213-38.834 136.102-1.428 47.89 9.11 95.381 30.659 138.173s53.428 79.536 92.754 106.904c39.326 27.369 84.855 44.499 132.467 49.84 2.577 0.294 5.188 0.064 7.671-0.678s4.796-1.979 6.788-3.638c1.993-1.659 3.631-3.704 4.813-6.013s1.882-4.833 2.061-7.42c0.695-9.911 8.371-12.608 13.781-14.51 1.579-0.554 2.961-1.041 3.925-1.618 11.012-4.41 20.454-12.018 27.098-21.844 6.647-9.826 10.197-21.418 10.193-33.281v-34.133c0-3.927-1.562-7.693-4.335-10.469-2.778-2.777-6.545-4.336-10.47-4.336h-102.4c-0.973-0.023-1.946 0.063-2.901 0.256l-38.4 7.723c-10.368 2.090-21.103 1.368-31.095-2.091s-18.88-9.528-25.737-17.579l-51.2-60.075c-1.613-1.888-2.731-4.15-3.245-6.58s-0.411-4.95 0.301-7.33l19.499-64.768c3.669-12.221 11.179-22.933 21.414-30.549 10.24-7.616 22.66-11.731 35.418-11.733h50.603c2.748 0.003 5.444-0.756 7.791-2.195 2.342-1.439 4.237-3.5 5.478-5.954l23.125-46.251c1.587-3.183 1.993-6.827 1.152-10.283l-6.229-24.789c-2.261-9.062-2.355-18.526-0.273-27.631 2.086-9.105 6.285-17.587 12.262-24.764l45.397-54.784c2.526-3.021 6.144-4.915 10.065-5.265 3.921-0.354 7.821 0.866 10.842 3.388l56.277 46.933c6.682 5.572 12.058 12.548 15.744 20.433 3.686 7.881 5.594 16.478 5.589 25.178v72.533c0.009 2.313 0.55 4.587 1.579 6.656l46.933 93.867c1.097 2.257 1.604 4.754 1.472 7.26s-0.896 4.937-2.219 7.067c-1.327 2.131-3.17 3.89-5.359 5.116s-4.655 1.875-7.164 1.89h-11.179c-2.756-0.009-5.461 0.753-7.804 2.201-2.347 1.448-4.237 3.523-5.466 5.991l-16.213 32.384c-1.084 2.105-1.647 4.438-1.647 6.805s0.563 4.7 1.647 6.805c1.131 2.094 2.739 3.889 4.698 5.239s4.207 2.216 6.566 2.526l63.147 7.893c10.534 1.305 20.527 5.414 28.932 11.898s14.916 15.106 18.854 24.966c1.417 3.534 3.776 6.61 6.827 8.891 3.046 2.281 6.665 3.678 10.453 4.040s7.607-0.328 11.029-1.991c3.426-1.664 6.327-4.238 8.384-7.441 38.208-59.697 53.022-131.404 41.596-201.355-11.426-69.95-48.286-133.216-103.505-177.653-8.811-7.108-14.434-17.421-15.637-28.676-1.207-11.251 2.108-22.524 9.216-31.334s17.421-14.434 28.676-15.637c11.255-1.207 22.524 2.108 31.334 9.216 55.616 44.779 97.22 104.567 119.881 172.275 22.66 67.711 25.421 140.5 7.962 209.732-17.463 69.233-54.413 132.005-106.475 180.869s-117.043 81.772-187.243 94.818c-70.199 13.046-142.665 5.683-208.806-21.215s-123.179-72.202-164.348-130.539c-41.169-58.336-64.742-127.258-67.921-198.587s14.166-142.076 49.98-203.844c2.819-4.847 6.566-9.088 11.026-12.484s9.546-5.884 14.966-7.313c5.421-1.429 11.070-1.779 16.625-1.024s10.907 2.594 15.75 5.419zM0 338.906h170.667v-384h-170.667v384zM868.181 207.407h0.64c26.769 7.991 55.334 7.676 81.924-0.909 26.586-8.589 49.941-25.037 66.982-47.177 2.385-2.385 4.169-5.308 5.205-8.516 1.041-3.213 1.301-6.626 0.764-9.954-0.538-3.332-1.86-6.49-3.853-9.212s-4.604-4.932-7.62-6.451c-86.729-43.383-154.726-79.535-209.353-108.574l-0.183-0.098c-131.84-70.144-192.64-101.845-261.931-101.845-56.747 0-119.211 21.333-231.168 60.117-24.576 8.533-51.669 17.92-81.792 28.16-4.222 1.438-7.889 4.16-10.483 7.787s-3.987 7.979-3.981 12.437v251.733c0 5.658 2.248 11.085 6.249 15.087 4.001 3.998 9.427 6.246 15.085 6.246h85.333c62.761-4.083 122.522-28.343 170.368-69.163 7.676-6.089 15.838-11.541 24.405-16.299l157.227 0.299c14.144 0 27.712-5.619 37.713-15.62s15.62-23.569 15.62-37.713c0-14.144-5.619-27.708-15.62-37.713-10.001-10.001-23.569-15.62-37.713-15.62h-224c-5.658 0-11.085-2.249-15.087-6.246-3.998-4.002-6.246-9.429-6.246-15.087s2.249-11.085 6.246-15.083c4.002-4.002 9.429-6.251 15.087-6.251h224.043c12.753 0.004 25.374 2.547 37.133 7.484s22.413 12.164 31.347 21.265c8.934 9.101 15.966 19.887 20.681 31.735 4.719 11.849 7.027 24.516 6.797 37.265-0.068 4.582 1.335 9.062 4.011 12.779 2.675 3.721 6.473 6.481 10.837 7.872l85.333 27.264z" />
<glyph unicode="&#xe92f;" glyph-name="Child" data-tags="Child categoryid:46" d="M500.012 530.104l-37.503 148.474h156.972c11.324 0 22.439-1.135 33.244-3.095l-36.568-145.379h-116.145zM394.152 839.95c-15.583 33.946-43.113 60.050-76.46 74.495 59.527 12.794 121.859-17.747 145.752-75.217l49.346-118.243h-64.202l-54.436 118.965zM117.919 587.575c-51.839 0-97.030 33.017-112.509 82.13-18.803 59.844 12.882 123.608 72.201 144.966l134.844 60.566c52.255 23.318 117.599-1.238 141.181-52.828l63.163-137.95 45.71-180.769c2.493-9.389 11.012-15.993 20.777-15.993h149.492c9.869 0 18.388 6.603 20.777 16.096l40.1 158.999c18.492-7.945 35.633-18.263 50.696-31.16 0.935-0.516 2.078-0.516 3.013-1.032l232.186-131.037c20.569-11.556 27.738-37.454 16.102-57.883-7.895-13.723-22.336-21.461-37.191-21.461-7.064 0-14.336 1.754-20.985 5.468l-126.741 71.4c0.208-3.199 1.039-6.397 1.039-9.699v-99.671c27.426-20.945 61.397-71.606 87.161-123.505-12.362-1.548-24.517-4.024-36.152-8.564-42.905-16.612-87.368-29.096-132.455-39.311-48.93 71.193-135.052 122.68-217.538 122.68-81.239 0-169.438-51.899-220.031-122.061-44.359 10.215-88.199 22.596-130.585 39.002-11.22 4.437-22.855 6.913-34.698 8.461 41.762 79.241 98.9 135.267 122.586 156.316l-51.216 188.198-55.164-18.366c-10.389-2.27-18.18-2.992-25.764-2.992zM192.301 763.392c-11.843 0-21.401-9.389-21.401-21.255 0-11.762 9.558-21.255 21.401-21.255s21.401 9.492 21.401 21.255c0 11.762-9.558 21.255-21.401 21.255zM1016.639 156.184c10.389-26.311 9.765-55.201-1.766-81.202-11.427-25.898-32.309-45.915-58.904-56.232-141.181-54.891-290.362-82.749-443.386-82.749-153.232 0-302.621 27.961-444.010 82.956-26.595 10.421-47.476 30.335-58.903 56.336s-11.947 54.788-1.558 81.202c16.206 40.962 55.267 67.376 99.523 67.376 13.401 0 26.491-2.476 38.957-7.326 231.874-90.282 500.004-90.282 731.671-0.206 12.466 4.849 25.556 7.326 38.957 7.326 44.256 0 83.317-26.414 99.419-67.479z" />
<glyph unicode="&#xe930;" glyph-name="Child-line" data-tags="Child-line categoryid:46" d="M530.529 678.211h88.929c0.611 0 1.222-0.003 1.831-0.008h19.53c3.721 0 7.177-0.929 10.178-2.548 42.945-7.037 81.091-28.204 109.431-58.53l229.177-129.013c10.262-5.777 13.864-18.719 8.045-28.907s-18.856-13.763-29.118-7.986l-165.564 93.203c5.68-18.019 8.742-37.186 8.742-57.063v-99.709c33.273-25.592 78.257-96.089 105.564-164.108 42.653-0.027 82.895-25.625 99.362-67.47 21.477-54.574-5.602-116.059-60.559-137.352-141.287-54.886-290.467-82.719-443.422-82.719-153.122 0-302.562 27.916-444.032 82.935-54.913 21.371-82.011 82.876-60.489 137.43 16.604 41.943 57.161 67.53 99.988 67.352 15.56 38.327 36.769 74.803 62.249 109.172 19.641 26.493 40.662 50.196 61.709 70.823 6.823 6.687 12.867 12.307 17.924 16.812l-51.129 188.057-57.828-19.112c-59.151-11.703-117.64 22.736-135.643 79.875-18.785 59.727 13.011 123.539 70.728 144.273l136.443 61.152c5.233 2.349 10.557 4.244 15.927 5.701l-0.129 0.322 69.18 27.445c65.163 25.805 139.132-5.153 165.939-69.468l67.041-160.56zM484.282 678.211l-60.265 144.332c-17.868 42.871-67.185 63.511-110.626 46.308l-0.958-0.38c17.535-10.682 32.156-26.498 41.301-46.485l65.867-143.775h64.683zM874.685 214.816c-27.743 65.638-73.492 133.781-92.53 141.629-7.973 3.287-13.169 11.014-13.169 19.584v111.33c0 37.635-14.112 72.001-37.368 98.167-0.463 0.469-0.902 0.956-1.315 1.46-19.435 21.296-45.009 36.967-73.949 44.259l-37.532-149.038c-2.377-9.44-10.921-16.063-20.723-16.063h-149.527c-9.802 0-18.346 6.623-20.723 16.063l-42.254 167.789-70.753 154.441c-14.612 31.938-52.516 46.12-84.676 31.684l-137.955-61.763c-37.739-13.6-58.008-54.276-46.029-92.362 11.48-36.436 48.779-58.398 83.902-51.623l76.729 25.532c11.662 3.88 24.207-2.792 27.412-14.581l60.537-222.661c2.212-8.137-0.639-16.802-7.264-22.073-4.861-3.868-13.781-11.67-25.403-23.060-19.529-19.14-39.085-41.19-57.315-65.781-21.893-29.531-40.279-60.612-54.129-92.932 25.124-9.643 50.626-18.237 76.424-25.781 46.073 106.286 168.981 192.3 285.589 192.3 117.777 0 237.255-84.37 282.066-193.346 27.006 7.791 53.69 16.733 79.957 26.823zM753.059 176.942c-39.94 90.911-142.092 161.985-240.397 161.985-97.153 0-202.557-72.612-243.859-161.115 158.306-38.94 325.881-39.235 484.256-0.871zM192.238 763.026c11.791 0 21.361-9.5 21.361-21.206s-9.57-21.206-21.361-21.206c-11.791 0-21.361 9.5-21.361 21.206s9.57 21.206 21.361 21.206zM433.207 635.791l32.042-127.235h116.171l32.042 127.235h-180.254zM512.653-21.588c147.638 0 291.537 26.847 427.871 79.809 32.973 12.775 49.212 49.649 36.317 82.417-12.892 32.759-50.023 48.909-83.009 36.065-242.84-94.386-519.946-94.294-762.869 0.211-32.906 12.787-70.122-3.358-83.060-36.039-12.908-32.719 3.353-69.629 36.306-82.453 136.491-53.083 280.645-80.011 428.444-80.011z" />
<glyph unicode="&#xe931;" glyph-name="alcohol" data-tags="alcohol categoryid:81" d="M810.667 597.334c0 9.501-41.581 313.433-42.871 322.869-1.42 10.546-10.465 18.464-21.125 18.464h-469.325c-10.71 0-19.754-7.918-21.174-18.497-0.784-5.942-42.838-316.878-42.838-322.837 0-157.525 122.588-286.578 277.337-297.581v-342.411h-106.671c-11.787 0-21.337-9.534-21.337-21.337s9.534-21.337 21.337-21.337h256c11.787 0 21.337 9.534 21.337 21.337s-9.534 21.337-21.337 21.337h-106.671v342.411c154.7 11.003 277.337 140.056 277.337 297.581zM267.371 682.667l28.619 213.325h432.038l28.961-213.325h-489.618z" />
<glyph unicode="&#xe932;" glyph-name="alcohol-line" data-tags="alcohol-line categoryid:81" d="M261.878 640l-5.874-44.055c0.747-140.752 115.068-254.612 255.996-254.612 141.391 0 256 114.609 256.187 253.181l-6.065 45.486h-500.245zM267.567 682.667h488.867l-28.444 213.333h-431.978l-28.444-213.333zM533.333 299.417v-342.083h106.667c11.782 0 21.333-9.551 21.333-21.333s-9.551-21.333-21.333-21.333h-256c-11.782 0-21.333 9.551-21.333 21.333s9.551 21.333 21.333 21.333h106.667v342.083c-154.998 10.938-277.333 140.134-277.333 297.917l0.187 2.819 42.667 320c1.413 10.599 10.454 18.514 21.146 18.514h469.333c10.692 0 19.733-7.915 21.146-18.514l42.854-322.819c0-157.782-122.335-286.979-277.333-297.917z" />
<glyph unicode="&#xe933;" glyph-name="alimony" data-tags="alimony" d="M853.298 789.173h-853.091v-554.519h852.987v554.519h0.104zM192.117 320.005h-85.351c-11.747 0-21.312 9.564-21.312 21.312s9.564 21.312 21.312 21.312h85.351c11.747 0 21.312-9.564 21.312-21.312s-9.564-21.312-21.312-21.312zM426.753 362.628c-82.336 0-149.286 66.95-149.286 149.286s66.95 149.286 149.286 149.286c82.336 0 149.286-66.95 149.286-149.286 0-82.232-66.95-149.286-149.286-149.286zM746.636 661.199h-85.351c-11.747 0-21.312 9.564-21.312 21.312s9.564 21.312 21.312 21.312h85.351c11.747 0 21.312-9.564 21.312-21.312s-9.564-21.312-21.312-21.312zM938.545 682.511v-533.104h-831.675c-11.747 0-21.312 9.564-21.312 21.312s9.564 21.312 21.312 21.312h789.052v490.48c0 11.747 9.564 21.312 21.312 21.312s21.312-9.564 21.312-21.312zM1002.48 618.576c11.747 0 21.416-9.564 21.312-21.312l0.001-533.104h-831.676c-11.747 0-21.312 9.564-21.312 21.312s9.564 21.312 21.312 21.312h789.052v490.48c0 11.747 9.564 21.312 21.312 21.312z" />
<glyph unicode="&#xe934;" glyph-name="alimony-line" data-tags="alimony-line" d="M810.667 746.667h-768v-469.333h768v469.333zM832 234.667h-810.667c-11.782 0-21.333 9.551-21.333 21.333v512c0 11.782 9.551 21.333 21.333 21.333h810.667c11.782 0 21.333-9.551 21.333-21.333v-512c0-11.782-9.551-21.333-21.333-21.333zM106.667 192h789.333v490.667c0 11.782 9.551 21.333 21.333 21.333s21.333-9.551 21.333-21.333v-512c0-11.782-9.551-21.333-21.333-21.333h-810.667c-11.782 0-21.333 9.551-21.333 21.333s9.551 21.333 21.333 21.333zM192 106.667h789.333v490.667c0 11.782 9.551 21.333 21.333 21.333s21.333-9.551 21.333-21.333v-512c0-11.782-9.551-21.333-21.333-21.333h-810.667c-11.782 0-21.333 9.551-21.333 21.333s9.551 21.333 21.333 21.333zM576 512c0-82.481-66.853-149.333-149.333-149.333s-149.333 66.853-149.333 149.333c0 82.481 66.853 149.333 149.333 149.333s149.333-66.853 149.333-149.333zM533.333 512c0 58.917-47.75 106.667-106.667 106.667s-106.667-47.75-106.667-106.667c0-58.917 47.75-106.667 106.667-106.667s106.667 47.75 106.667 106.667zM106.667 320h85.333c11.782 0 21.333 9.551 21.333 21.333s-9.551 21.333-21.333 21.333h-85.333c-11.782 0-21.333-9.551-21.333-21.333s9.551-21.333 21.333-21.333zM661.333 661.334h85.333c11.782 0 21.333 9.551 21.333 21.333s-9.551 21.333-21.333 21.333h-85.333c-11.782 0-21.333-9.551-21.333-21.333s9.551-21.333 21.333-21.333z" />
<glyph unicode="&#xe935;" glyph-name="arts" data-tags="arts categoryid:202" d="M874.169 751.384c-96.786 96.682-225.384 150.013-362.195 150.013s-265.408-53.331-362.195-150.013c-102.007-102.060-151.91-236.775-149.71-370.773 2.107-128.34 52.010-256.020 149.71-353.72 20.168-20.064 46.99-31.188 75.475-31.188s55.306 11.124 75.475 31.188c41.584 41.688 41.584 109.365 0 150.949-8.317 8.317-8.317 21.831 0 30.252 8.005 8.005 22.143 8.005 30.148 0l181.097-181.201c48.445-48.341 112.692-74.955 181.097-74.955s132.756 26.614 181.097 74.955c98.605 98.605 148.524 227.749 149.756 357.288 1.264 132.818-48.655 266.051-149.756 367.205zM481.722 600.435c-24.95-25.054-65.494-25.054-90.549 0s-25.054 65.598 0 90.549c25.054 25.054 65.494 25.054 90.549 0 25.054-24.95 25.054-65.494 0-90.549zM647.745 645.657c24.95 25.054 65.598 25.054 90.549 0 24.95-24.95 24.95-65.494 0-90.549-24.95-24.95-65.598-24.95-90.549 0s-24.95 65.598 0 90.549zM753.472 117.544c-33.371-33.371-87.43-33.371-120.697 0-33.371 33.267-33.371 87.326 0 120.697 33.267 33.267 87.43 33.267 120.697 0 33.267-33.371 33.267-87.43 0-120.697zM840.902 358.937c-16.634-16.634-43.663-16.634-60.4 0-16.634 16.634-16.634 43.663 0 60.4 16.634 16.634 43.663 16.634 60.4 0 16.737-16.737 16.737-43.767 0-60.4z" />
<glyph unicode="&#xe936;" glyph-name="arts-line" data-tags="arts-line categoryid:202" d="M270.635 57.28c24.984 25.080 24.984 65.576 0.048 90.544-25.036 24.972-25.036 65.503-0.039 90.501 24.976 25.040 65.564 25.040 90.522 0.018l180.987-181.029c83.36-83.321 218.42-83.321 301.738-0.004 183.285 183.285 183.285 480.478 0.005 663.798-183.328 183.206-480.483 183.206-663.764 0.007-183.287-183.328-183.287-480.52-0.002-663.805 24.991-24.991 65.543-24.991 90.505-0.029zM149.963 751.286c100.625 100.58 232.709 150.542 364.594 149.886 130.176-0.648 260.159-50.611 359.505-149.891 101.5-101.523 151.475-235.056 149.924-368.094-1.504-129.034-51.479-257.602-149.925-356.048-99.979-99.979-262.049-99.979-362.076 0.002l-181.010 181.052c-8.304 8.326-21.818 8.326-30.141-0.019-8.348-8.348-8.348-21.834 0.010-30.17 41.595-41.648 41.595-109.1-0.010-150.864-41.654-41.654-109.22-41.654-150.874 0-99.096 99.096-149.079 228.713-149.948 358.604-0.885 132.192 49.099 264.667 149.952 365.542zM753.309 540.031c33.368 33.254 33.368 87.42 0 120.675-33.243 33.357-87.314 33.357-120.653-0.039-33.33-33.216-33.33-87.382 0.039-120.636 33.32-33.263 87.351-33.263 120.614 0zM723.165 570.227c-16.631-16.631-43.667-16.631-60.339 0.013-16.65 16.593-16.65 43.665-0.013 60.245 16.705 16.733 43.701 16.733 60.326 0.052 16.689-16.632 16.689-43.703 0.026-60.309zM765.418 343.974c25.014-25.014 65.487-25.014 90.501 0s25.014 65.487 0 90.501c-25.029 24.965-65.472 24.965-90.481 0.019-25.033-25.033-25.033-65.506-0.019-90.52zM795.588 374.144c-8.351 8.351-8.351 21.809 0 30.161 8.337 8.315 21.824 8.315 30.18-0.019 8.332-8.332 8.332-21.79-0.019-30.141s-21.809-8.351-30.161 0zM617.582 102.557c41.611-41.611 109.22-41.611 150.831 0 41.654 41.654 41.654 109.263 0 150.917-41.611 41.611-109.22 41.611-150.831 0-41.608-41.661-41.608-109.255 0-150.917zM647.762 132.717c-24.962 24.994-24.962 65.602 0 90.596 24.939 24.939 65.533 24.939 90.482-0.010 24.991-24.991 24.991-65.585 0-90.577-24.949-24.949-65.543-24.949-90.482-0.010zM496.891 705.983c-33.292 33.349-87.3 33.349-120.636 0.013-33.383-33.326-33.383-87.397 0.026-120.692 33.255-33.312 87.316-33.312 120.61 0.039 33.355 33.242 33.338 87.302 0 120.64zM466.709 675.826c16.684-16.684 16.693-43.69 0.026-60.3-16.665-16.693-43.67-16.693-60.296-0.039-16.721 16.664-16.721 43.66-0.026 60.326 16.682 16.682 43.655 16.682 60.296 0.013z" />
<glyph unicode="&#xe937;" glyph-name="associations" data-tags="associations categoryid:76" d="M0.468 426.719v149.182h255.74v-149.182c-0.104-46.158-14.346-73.707-42.623-82.336v-194.716h-170.493v194.716c-28.277 8.629-42.623 36.178-42.623 82.336zM767.792 575.901h255.74v-149.182c-0.104-46.158-14.346-73.707-42.623-82.336v-194.716h-170.493v194.716c-28.277 8.629-42.623 36.178-42.623 82.336v149.182zM341.455 341.472v234.428h340.987v-234.428c0-51.564-36.698-94.603-85.247-104.479v-257.923h-170.493v257.923c-48.549 9.98-85.247 53.019-85.247 104.479zM895.662 618.524c-46.99 0-85.247 38.257-85.247 85.247s38.257 85.247 85.247 85.247c46.99 0 85.247-38.257 85.247-85.247s-38.257-85.247-85.247-85.247zM128.338 618.524c-46.99 0-85.247 38.257-85.247 85.247s38.257 85.247 85.247 85.247c46.99 0 85.247-38.257 85.247-85.247s-38.257-85.247-85.247-85.247zM512.052 618.524c-70.588 0-127.87 57.386-127.87 127.87s57.386 127.87 127.87 127.87c70.484 0 127.87-57.386 127.87-127.87s-57.386-127.87-127.87-127.87z" />
<glyph unicode="&#xe938;" glyph-name="associations-line" data-tags="associations-line categoryid:76" d="M0 426.667v128c0 11.782 9.551 21.333 21.333 21.333h213.333c11.782 0 21.333-9.551 21.333-21.333v-128.026c-0.053-43.851-12.093-73.627-42.667-82.525v-173.449c0-11.782-9.551-21.333-21.333-21.333h-128c-11.782 0-21.333 9.551-21.333 21.333v173.443c-30.62 8.894-42.667 38.683-42.667 82.557zM42.667 533.334v-106.667c0-32.471 5.508-42.667 21.333-42.667 11.782 0 21.333-9.551 21.333-21.333v-170.667h85.333v170.667c0 11.782 9.551 21.333 21.333 21.333 15.774 0 21.294 10.222 21.333 42.667v106.667h-170.667zM768 426.667v128c0 11.782 9.551 21.333 21.333 21.333h213.333c11.782 0 21.333-9.551 21.333-21.333v-128.026c-0.053-43.851-12.093-73.627-42.667-82.525v-173.449c0-11.782-9.551-21.333-21.333-21.333h-128c-11.782 0-21.333 9.551-21.333 21.333v173.443c-30.62 8.894-42.667 38.683-42.667 82.557zM810.667 426.667c0-32.471 5.508-42.667 21.333-42.667 11.782 0 21.333-9.551 21.333-21.333v-170.667h85.333v170.667c0 11.782 9.551 21.333 21.333 21.333 15.774 0 21.294 10.222 21.333 42.667v106.667h-170.667v-106.667zM341.333 341.334v213.333c0 11.782 9.551 21.333 21.333 21.333h298.667c11.782 0 21.333-9.551 21.333-21.333v-213.333c0-51.414-36.767-94.575-85.333-104.514v-236.82c0-11.782-9.551-21.333-21.333-21.333h-128c-11.782 0-21.333 9.551-21.333 21.333v236.817c-48.585 9.934-85.333 53.088-85.333 104.516zM384 341.334c0-35.168 28.822-64 64-64 11.782 0 21.333-9.551 21.333-21.333v-234.667h85.333v234.667c0 11.782 9.551 21.333 21.333 21.333 35.151 0 64 28.849 64 64v192h-256v-192zM213.333 704c0-47.11-38.223-85.333-85.333-85.333s-85.333 38.223-85.333 85.333c0 47.11 38.223 85.333 85.333 85.333s85.333-38.223 85.333-85.333zM640 746.667c0-70.705-57.295-128-128-128s-128 57.295-128 128c0 70.705 57.295 128 128 128s128-57.295 128-128zM981.333 704c0-47.11-38.223-85.333-85.333-85.333s-85.333 38.223-85.333 85.333c0 47.11 38.223 85.333 85.333 85.333s85.333-38.223 85.333-85.333zM170.667 704c0 23.546-19.121 42.667-42.667 42.667s-42.667-19.121-42.667-42.667c0-23.546 19.121-42.667 42.667-42.667s42.667 19.121 42.667 42.667zM938.667 704c0 23.546-19.121 42.667-42.667 42.667s-42.667-19.121-42.667-42.667c0-23.546 19.121-42.667 42.667-42.667s42.667 19.121 42.667 42.667zM597.333 746.667c0 47.141-38.193 85.333-85.333 85.333s-85.333-38.193-85.333-85.333c0-47.141 38.193-85.333 85.333-85.333s85.333 38.193 85.333 85.333z" />
<glyph unicode="&#xe939;" glyph-name="atm" data-tags="atm categoryid:216" d="M725.346 277.373l0.033-0.098c47.029 0 85.325-38.297 85.325-85.325s-38.297-85.325-85.325-85.325h-96.804c7.293-12.558 11.446-27.144 11.446-42.679 0-47.029-38.297-85.325-85.325-85.325h-320.010c-129.443 0-234.685 105.307-234.685 234.685v142.296c0 217.286 128.789 280.504 213.329 298.622v7.097h192.006c75.383 0 106.681-55.564 106.681-85.325v-21.323c0-29.728-31.298-85.325-106.681-85.325h-64.002c-8.536 0-16.254-5.069-19.622-12.918-16.254-37.937-71.262-136.409-129.705-136.409-11.773 0-21.323-9.517-21.323-21.323 0-11.741 9.517-21.323 21.323-21.323 32.377 0 61.157 16.483 85.489 38.885 0.981-25.182 11.316-38.885 21.16-38.885h426.691zM554.663 704.064c-11.773 0-21.323-9.517-21.323-21.323 0-11.741 9.517-21.323 21.323-21.323h469.337v-256.008c0-47.029-38.297-85.325-85.325-85.325h-640.020c-5.331 0-10.498 0.621-15.534 1.57 35.549 35.026 60.699 81.76 71.916 105.078h50.299c97.393 0 149.327 74.369 149.327 128.004v21.323c0 53.668-51.902 128.004-149.327 128.004h-192.006v85.325c0 47.029 38.231 85.325 85.325 85.325h640.020c47.029 0 85.325-38.297 85.325-85.325v-85.325h-469.337zM789.348 618.706c-11.773 0-21.323-9.517-21.323-21.323 0-11.741 9.517-21.323 21.323-21.323h128.004c11.773 0 21.323 9.582 21.323 21.323 0 11.773-9.517 21.323-21.323 21.323h-128.004z" />
<glyph unicode="&#xe93a;" glyph-name="atm-line" data-tags="atm-line categoryid:216" d="M448 277.334h-149.333c-47.123 0-85.333 38.193-85.333 85.333v2.352c-6.884-1.551-13.993-2.352-21.333-2.352-11.782 0-21.333 9.551-21.333 21.333s9.551 21.333 21.333 21.333c10.1 0 20.047 3.090 29.737 8.992 0.929 0.709 1.919 1.344 2.959 1.895 15.796 10.609 30.875 28.695 44.781 53.031 8.734 15.284 16.287 31.807 22.587 48.344 3.767 9.89 6.248 17.487 7.423 21.599 2.617 9.158 10.988 15.473 20.513 15.473h85.333c37.61 0 64 17.593 64 42.667v21.333c0 4.152-0.763 8.111-2.207 11.826-0.352 0.706-0.666 1.435-0.94 2.183-8.151 17.223-31.387 28.658-60.853 28.658h-128c-132.107 0-234.667-78.622-234.667-263.083v-142.251c0-106.063 85.937-192 192-192h320c23.563 0 42.667 19.095 42.667 42.667 0 23.546-19.121 42.667-42.667 42.667h-106.667c-11.782 0-21.333 9.551-21.333 21.333s9.551 21.333 21.333 21.333h277.333c23.563 0 42.667 19.095 42.667 42.667 0 23.546-19.121 42.667-42.667 42.667h-277.333zM799.242 277.334c7.265-12.553 11.425-27.126 11.425-42.667 0-47.14-38.211-85.333-85.333-85.333h-96.758c7.265-12.553 11.425-27.126 11.425-42.667 0-47.14-38.211-85.333-85.333-85.333h-320c-129.627 0-234.667 105.039-234.667 234.667v142.251c0 180.608 90.789 276.127 213.333 299.824v48.592c0 47.11 38.223 85.333 85.333 85.333h640c47.11 0 85.333-38.223 85.333-85.333v-384c0-47.14-38.211-85.333-85.333-85.333h-139.425zM256 703.376c7.040 0.417 14.154 0.624 21.333 0.624h128c39.906 0 75.694-15.533 93.931-42.667h482.069v85.333c0 23.546-19.121 42.667-42.667 42.667h-640c-23.546 0-42.667-19.121-42.667-42.667v-43.291zM981.333 618.667h-469.333v-21.333c0-53.149-48.277-85.333-106.667-85.333h-69.866c-1.046-2.949-2.223-6.158-3.532-9.595-7.034-18.463-15.481-36.941-25.413-54.323-14.933-26.132-31.687-47.371-50.523-62.134v-23.282c0-23.572 19.104-42.667 42.667-42.667h640c23.563 0 42.667 19.095 42.667 42.667v256zM917.333 576c11.782 0 21.333-9.551 21.333-21.333s-9.551-21.333-21.333-21.333h-128c-11.782 0-21.333 9.551-21.333 21.333s9.551 21.333 21.333 21.333h128z" />
<glyph unicode="&#xe93b;" glyph-name="auto" data-tags="auto categoryids:32-117-253-115-904-901-902-903-905" d="M191.98 368.032c52.964 0 96.042-43.079 96.042-96.042s-43.079-96.042-96.042-96.042c-52.964 0-96.042 43.079-96.042 96.042s43.079 96.042 96.042 96.042zM1002.773 293.321c11.758 0 21.227-9.469 21.227-21.227s-9.573-21.331-21.331-21.331h-76.792c1.145 6.972 2.185 14.047 2.185 21.331 0 76.48-62.225 138.705-138.705 138.705s-138.705-62.225-138.705-138.705c0-7.284 1.041-14.36 2.185-21.331h-324.338c1.145 6.972 2.185 14.047 2.185 21.331 0 76.48-62.225 138.705-138.705 138.705s-138.705-62.225-138.705-138.705c0-7.284 1.041-14.36 2.185-21.331h-34.13c-11.758 0-21.331 9.573-21.331 21.331v149.318c0 47.033 38.188 85.325 85.325 85.325h157.538l79.498 158.891c3.538 7.18 10.926 11.758 19.042 11.758h405.396c8.012 0 15.4-4.474 19.042-11.758l79.394-158.995h50.883c47.033 0 85.325-38.188 85.325-85.325v-127.987h21.331zM448.059 549.399c11.758 0 21.331 9.573 21.227 21.331 0 11.758-9.573 21.331-21.331 21.331h-42.662c-8.012 0-15.4-4.474-19.042-11.758l-42.662-85.325c-5.307-10.509-1.041-23.308 9.469-28.615 3.122-1.561 6.347-2.289 9.573-2.289 7.804 0 15.4 4.266 19.146 11.758l36.731 73.567h29.551zM789.461 368.032c52.86 0 95.938-43.079 96.042-96.042 0-52.964-43.079-96.042-96.042-96.042s-96.042 43.079-96.042 96.042c0 52.964 43.079 96.042 96.042 96.042z" />
<glyph unicode="&#xe93c;" glyph-name="auto-line" data-tags="auto-line categoryids:32-117-253-115-904-901-902-903-905" d="M296.531 256c-9.89-48.673-52.95-85.333-104.531-85.333s-94.64 36.661-104.531 85.333h-66.136c-11.782 0-21.333 9.551-21.333 21.333v149.333c0 47.153 38.181 85.333 85.333 85.333h157.482l79.437 158.874c3.614 7.227 11.001 11.793 19.081 11.793h405.333c8.080 0 15.467-4.565 19.081-11.793l79.437-158.874h50.815c47.123 0 85.333-38.193 85.333-85.333v-128h21.333c11.782 0 21.333-9.551 21.333-21.333s-9.551-21.333-21.333-21.333h-108.803c-9.89-48.673-52.95-85.333-104.531-85.333s-94.64 36.661-104.531 85.333h-388.272zM296.531 298.667h388.272c9.89 48.673 52.95 85.333 104.531 85.333s94.64-36.661 104.531-85.333h44.803v128c0 23.572-19.104 42.667-42.667 42.667h-64c-8.080 0-15.467 4.565-19.081 11.793l-79.437 158.874h-378.964l-79.437-158.874c-3.614-7.227-11.001-11.793-19.081-11.793h-170.667c-23.589 0-42.667-19.078-42.667-42.667v-128h44.803c9.89 48.673 52.95 85.333 104.531 85.333s94.64-36.661 104.531-85.333zM256 277.334c0 35.322-28.678 64-64 64s-64-28.678-64-64c0-35.322 28.678-64 64-64s64 28.678 64 64zM853.333 277.334c0 35.322-28.678 64-64 64s-64-28.678-64-64c0-35.322 28.678-64 64-64s64 28.678 64 64zM448 554.667h-29.482l-36.77-73.541c-5.269-10.538-18.083-14.81-28.622-9.541s-14.81 18.083-9.541 28.622l42.667 85.333c3.614 7.227 11.001 11.793 19.081 11.793h42.667c11.782 0 21.333-9.551 21.333-21.333s-9.551-21.333-21.333-21.333z" />
<glyph unicode="&#xe93d;" glyph-name="autoservice" data-tags="autoservice categoryid:37" d="M379.349 896h265.344l32-128h-329.344l32 128zM384 512h256v-42.667h-256v42.667zM1002.667-42.666h-21.333v746.667c0 11.776-9.515 21.333-21.333 21.333h-85.333c-11.776 0-21.333-9.557-21.333-21.333v-234.667h-85.333v42.667h21.333c11.819 0 21.333 9.557 21.333 21.333v64h-128c-11.776 0-21.333 9.557-21.333 21.333s9.557 21.333 21.333 21.333h128v21.333c0 5.675-2.219 11.093-6.229 15.104l-81.152 81.152-41.259 164.907c-2.389 9.515-10.88 16.171-20.693 16.171h-298.667c-9.771 0-18.304-6.656-20.693-16.171l-41.216-164.907-81.152-81.152c-4.011-4.011-6.272-9.429-6.272-15.104v-21.333h128c11.819 0 21.333-9.557 21.333-21.333s-9.515-21.333-21.333-21.333h-128v-64c0-11.776 9.557-21.333 21.333-21.333h21.333v-42.667h-85.333v234.667c0 11.776-9.515 21.333-21.333 21.333h-85.333c-11.776 0-21.333-9.557-21.333-21.333v-746.667h-21.333c-11.776 0-21.333-9.557-21.333-21.333s9.557-21.333 21.333-21.333h170.667c11.819 0 21.333 9.557 21.333 21.333s-9.515 21.333-21.333 21.333h-21.333v469.333h682.667v-469.333h-21.333c-11.776 0-21.333-9.557-21.333-21.333s9.557-21.333 21.333-21.333h170.667c11.819 0 21.333 9.557 21.333 21.333s-9.515 21.333-21.333 21.333v0zM512.017 106.667c-35.328 0-64 28.629-64 64 0 35.328 28.672 64 64 64 35.285 0 64-28.672 64-64 0-35.371-28.715-64-64-64zM707.601 130.134l-29.525 16.939c1.024 7.765 1.579 15.659 1.579 23.595 0 7.765-0.597 15.659-1.707 23.637l29.312 16.939c10.197 5.888 13.739 18.944 7.808 29.141l-42.667 73.899c-2.859 4.949-7.595 8.533-13.099 10.027-5.547 1.451-11.435 0.512-16.341-2.389l-27.733-16.64c-12.075 9.472-25.344 17.365-39.211 23.253v34.133c0 11.776-9.557 21.333-21.333 21.333h-85.333c-11.776 0-21.333-9.557-21.333-21.333v-34.005c-15.445-6.272-29.995-14.464-42.325-23.68l-30.421 17.195c-10.155 5.888-23.083 2.304-28.971-7.808l-43.051-73.899c-2.816-4.907-3.584-10.752-2.133-16.213 1.451-5.504 4.992-10.155 9.941-13.013l29.141-16.896c-1.195-8.021-1.749-15.915-1.749-23.68 0-7.893 0.512-15.744 1.664-23.637l-29.397-16.896c-4.907-2.859-8.491-7.509-9.941-12.971s-0.725-11.349 2.133-16.213l42.667-73.899c5.803-10.069 18.603-13.653 28.843-7.979l31.147 17.408c12.331-9.301 26.965-17.536 42.453-23.851v-33.963c0-11.776 9.557-21.333 21.333-21.333h85.333c11.776 0 21.333 9.557 21.333 21.333v34.091c13.909 5.973 27.179 13.824 39.339 23.381l28.501-16.811c4.907-2.901 10.709-3.627 16.299-2.261 5.504 1.493 10.197 5.12 13.013 10.069l42.325 73.899c5.845 10.197 2.304 23.211-7.893 29.099z" />
<glyph unicode="&#xe93e;" glyph-name="autoservice-line" data-tags="autoservice-line categoryid:37" d="M896-42.666h42.667v725.333h-42.667v-725.333zM682.667 469.334h42.667v42.667h-42.667v-42.667zM384 469.334h256v42.667h-256v-42.667zM298.667 469.334h42.667v42.667h-42.667v-42.667zM256 597.334v-42.667h512v42.667h-85.333c-11.947 0-21.333 9.387-21.333 21.333s9.387 21.333 21.333 21.333h85.333v12.373l-72.96 72.96h-366.080l-72.96-72.96v-12.373h85.333c11.947 0 21.333-9.387 21.333-21.333s-9.387-21.333-21.333-21.333h-85.333zM379.307 896l-32-128h329.387l-32 128h-265.387zM85.333-42.666h42.667v725.333h-42.667v-725.333zM1002.667-42.666c11.947 0 21.333-9.387 21.333-21.333s-9.387-21.333-21.333-21.333h-170.667c-11.947 0-21.333 9.387-21.333 21.333s9.387 21.333 21.333 21.333h21.333v469.333h-682.667v-469.333h21.333c11.947 0 21.333-9.387 21.333-21.333s-9.387-21.333-21.333-21.333h-170.667c-11.947 0-21.333 9.387-21.333 21.333s9.387 21.333 21.333 21.333h21.333v746.667c0 11.947 9.387 21.333 21.333 21.333h85.333c11.947 0 21.333-9.387 21.333-21.333v-234.667h85.333v42.667h-21.333c-11.947 0-21.333 9.387-21.333 21.333v128c0 5.547 2.133 11.093 6.4 14.933l80.64 80.64 41.387 165.547c2.56 9.387 11.093 16.213 20.907 16.213h298.667c9.813 0 18.347-6.827 20.907-16.213l41.387-165.547 80.64-80.64c4.267-3.84 6.4-9.387 6.4-14.933v-128c0-11.947-9.387-21.333-21.333-21.333h-21.333v-42.667h85.333v234.667c0 11.947 9.387 21.333 21.333 21.333h85.333c11.947 0 21.333-9.387 21.333-21.333v-746.667h21.333zM646.827 66.987l20.907 36.693-23.893 14.080c-8.107 4.693-12.373 14.080-10.24 23.040 2.133 9.813 3.413 19.627 3.413 29.867 0 9.813-1.28 19.627-3.84 29.44-2.133 9.387 2.133 18.773 10.24 23.467l23.893 14.080-20.907 36.693-22.613-13.653c-8.107-4.693-18.347-3.84-25.6 2.987-14.507 13.653-31.573 23.893-49.92 29.867-8.96 2.56-14.933 11.093-14.933 20.053v27.733h-42.667v-27.733c0-9.387-5.973-17.493-14.933-20.053-20.053-6.4-39.68-17.493-52.907-29.867-6.827-6.4-17.067-7.68-25.173-2.987l-25.173 14.080-21.76-37.12 23.893-14.080c8.107-4.693 12.373-14.080 10.24-23.467-2.56-9.813-3.84-20.053-3.84-29.44 0-9.813 1.28-19.627 3.413-29.44 2.56-9.387-1.707-18.773-9.813-23.467l-24.32-14.080 21.76-37.12 25.6 14.507c8.107 4.267 18.347 2.987 25.173-3.413 13.227-12.373 32.853-23.467 52.907-29.867 8.96-2.56 14.933-11.093 14.933-20.053v-27.733h42.667v27.733c0 8.96 5.973 17.493 14.933 20.053 18.347 5.973 35.413 16.213 49.92 29.867 7.253 6.827 17.493 7.68 25.6 2.987l23.040-13.653zM707.413 130.134c10.24-5.973 14.080-18.773 8.107-29.013l-42.24-73.813c-5.973-10.667-19.2-14.080-29.44-8.107l-28.587 17.067c-11.947-9.813-25.173-17.493-39.253-23.467v-34.133c0-11.947-9.387-21.333-21.333-21.333h-85.333c-11.947 0-21.333 9.387-21.333 21.333v34.133c-15.36 5.973-29.867 14.080-42.667 23.467l-31.147-17.067c-9.813-5.973-23.040-2.133-28.587 7.68l-42.667 74.24c-5.973 10.24-2.56 23.040 7.68 29.013l29.44 17.067c-1.28 7.68-1.707 15.36-1.707 23.467 0 7.68 0.853 15.787 1.707 23.893l-29.013 16.64c-10.24 5.973-13.653 19.2-7.68 29.44l43.093 73.813c5.973 9.813 18.773 13.653 29.013 7.68l30.293-17.067c12.373 9.387 26.88 17.493 42.24 23.467v34.133c0 11.947 9.387 21.333 21.333 21.333h85.333c11.947 0 21.333-9.387 21.333-21.333v-34.133c14.080-5.973 27.307-13.653 39.253-23.040l27.733 16.213c10.24 6.4 23.467 2.987 29.44-7.253l42.667-74.24c5.973-10.24 2.56-23.040-7.68-29.013l-29.44-17.067c1.28-7.68 1.707-15.36 1.707-23.467s-0.427-15.787-1.707-23.467l29.44-17.067zM512 128c23.467 0 42.667 19.2 42.667 42.667s-19.2 42.667-42.667 42.667c-23.467 0-42.667-19.2-42.667-42.667s19.2-42.667 42.667-42.667zM512 256c46.933 0 85.333-38.4 85.333-85.333s-38.4-85.333-85.333-85.333c-46.933 0-85.333 38.4-85.333 85.333s38.4 85.333 85.333 85.333z" />
<glyph unicode="&#xe93f;" glyph-name="bakery" data-tags="bakery categoryid:224" d="M685.924 810.667c-57.282 0-113.836-14.658-163.528-42.208-6.549-3.535-14.242-3.535-20.688 0-49.901 27.549-106.454 42.208-163.632 42.208-186.399 0-338.076-151.677-338.076-338.076 0-142.216 56.45-261.77 163.32-345.873 92.628-72.876 216.443-113.004 348.68-113.004 254.389 0 512 157.602 512 458.877 0 186.399-151.677 338.076-338.076 338.076zM495.159 620.733c8.109 10.396 25.574 10.396 33.683 0 33.267-42.727 50.836-93.979 50.836-148.142 0-41.064-17.569-87.43-50.836-134.212-3.95-5.614-10.5-8.941-17.361-8.941 0 0 0 0 0 0-6.965 0-13.411 3.431-17.465 9.044-32.539 46.47-49.797 92.836-49.797 134.108 0.104 54.163 17.673 105.415 50.94 148.142zM269.255 190.133c-3.327 0-6.653 0.728-9.668 2.287-118.93 60.192-163.216 136.187-163.216 280.171 0 133.172 108.326 241.602 241.602 241.602 21.624 0 43.039-2.911 63.727-8.525 6.757-1.871 12.163-6.965 14.554-13.515 2.287-6.653 1.144-14.035-2.911-19.648-42.935-58.321-65.598-127.454-65.598-199.81 0-75.163 2.183-114.147 52.084-177.978 3.535-4.47 5.094-10.188 4.366-15.802s-3.639-10.708-8.213-14.242c-35.034-26.925-74.539-51.252-117.474-72.252-2.807-1.559-6.030-2.287-9.252-2.287zM672.097 128.382c-1.144-8.317-6.965-15.074-14.97-17.569-46.47-13.931-94.291-21.104-142.009-21.104-48.861 0-98.242 7.485-146.687 22.039-8.213 2.495-14.138 9.668-15.074 18.193s3.431 16.841 10.916 20.896c47.925 26.302 136.811 84.519 137.642 85.039 6.965 4.574 16.010 4.678 23.079 0.208l137.226-86.91c7.173-4.366 10.916-12.579 9.876-20.792zM762.23 192.317c-3.015-1.559-6.342-2.287-9.564-2.287s-6.445 0.728-9.46 2.183c-43.143 21.312-82.856 45.846-117.89 72.772-4.574 3.535-7.485 8.629-8.213 14.242-0.728 5.718 0.832 11.332 4.366 15.906 52.084 66.222 54.579 106.35 54.579 177.459 0 72.356-22.663 141.489-65.598 199.81-4.158 5.718-5.198 12.995-2.911 19.648s7.797 11.747 14.554 13.515c20.688 5.718 42.208 8.525 63.727 8.525 133.276 0 241.602-108.43 241.602-241.602 0.104-143.568-44.703-219.562-165.191-280.171z" />
<glyph unicode="&#xe940;" glyph-name="bakery-line" data-tags="bakery-line categoryid:224" d="M672 832.005c194.097 0 352-157.903 352-352 0-279.526-228.14-463.147-512-463.147-130.684 0-253.621 39.956-346.118 112.769-108.405 85.281-165.882 206.854-165.882 350.378 0 194.097 157.903 352 352 352 56.34 0 110.874-13.346 159.996-38.501 49.079 25.149 103.652 38.501 160.004 38.501zM495.169 617.359c8.541 10.966 25.12 10.966 33.661 0 30.396-39.025 47.169-86.939 47.169-137.354 0-38.11-16.549-81.56-47.040-124.447-8.539-12.010-26.393-11.953-34.854 0.113-30.033 42.827-46.107 86.316-46.107 124.334 0 50.416 16.773 98.329 47.169 137.354zM490.667 480.005c0-21.013 7.118-45.757 21.058-71.823 14.257 26.122 21.609 50.866 21.609 71.823 0 30.271-7.449 59.377-21.333 85.285-13.884-25.908-21.333-55.013-21.333-85.285zM352 704.005c20.111 0 39.925-2.688 59.083-7.922 14.443-3.946 20.435-21.153 11.566-33.216-38.745-52.7-59.983-116.216-59.983-182.862 0-83.028 6.73-110.457 47.563-162.64 7.302-9.332 5.601-22.827-3.79-30.054-31.99-24.618-68.349-47.095-108.314-66.713-6.011-2.951-13.058-2.908-19.033 0.116-108.111 54.709-151.093 124.925-151.093 259.291 0 123.526 100.474 224 224 224zM352 661.338c-99.962 0-181.333-81.371-181.333-181.333 0-114.247 31.669-169.905 118.245-216.304 26.852 13.721 51.807 28.79 74.586 44.931-36.286 51.207-43.498 88.819-43.498 171.373 0 64.494 17.502 126.476 49.859 180.456-5.909 0.583-11.867 0.877-17.859 0.877zM615.243 287.748c-9.399 7.244-11.080 20.766-3.74 30.091 41.999 53.361 49.83 82.975 49.83 162.166 0 66.646-21.237 130.162-59.983 182.862-8.869 12.063-2.877 29.27 11.566 33.216 19.158 5.234 38.972 7.922 59.083 7.922 123.526 0 224-100.474 224-224 0-134.228-43.742-204.4-152.972-259.356-5.984-3.011-13.034-3.036-19.040-0.068-40.421 19.976-76.803 42.547-108.745 67.167zM733.314 263.657c87.749 46.693 120.019 102.335 120.019 216.348 0 99.962-81.371 181.333-181.333 181.333-5.992 0-11.949-0.294-17.859-0.877 32.357-53.98 49.859-115.962 49.859-180.456 0-79.354-8.328-118.598-45.759-171 22.815-16.196 47.886-31.383 75.073-45.348zM512 59.525c262.086 0 469.333 166.805 469.333 420.48 0 170.533-138.801 309.333-309.333 309.333-53.048 0-104.233-13.442-149.642-38.661-6.439-3.576-14.267-3.578-20.708-0.004-45.472 25.231-96.616 38.665-149.65 38.665-170.533 0-309.333-138.801-309.333-309.333 0-130.601 51.606-239.756 149.601-316.848 84.741-66.708 198.35-103.632 319.732-103.632zM503.132 213.751c-16.719-10.761-33.696-21.523-49.919-31.581-3.461-2.143-3.461-2.143-6.933-4.282-1.456-0.896-2.897-1.781-4.322-2.654 48.127-8.569 96.319-8.643 143.763-0.273-2.388 1.513-4.826 3.057-7.311 4.632-16.813 10.653-28.706 18.193-52.483 33.271-5.429 3.444-9.309 5.904-12.191 7.733-3.145-2.038-6.699-4.334-10.603-6.846zM501.879 263.793c7.007 4.598 16.057 4.667 23.133 0.177 4.751-3.014 4.751-3.014 23.765-15.074 23.772-15.075 35.661-22.612 52.314-33.164 20.283-12.852 37.281-23.613 50.141-31.742 15.46-9.772 12.261-33.193-5.253-38.462-87.093-26.2-177.61-25.962-266.564 0.903-18.101 5.466-20.669 30.035-4.091 39.127 12.635 6.93 29.165 16.711 48.592 28.667 3.41 2.101 3.41 2.101 6.814 4.209 15.996 9.917 32.778 20.555 49.309 31.195 9.918 6.384 17.54 11.344 21.84 14.165z" />
<glyph unicode="&#xe941;" glyph-name="bank" data-tags="bank categoryids:54-59-57-283" d="M1002.693-42.682c11.733 0 21.333-9.557 21.333-21.333 0-11.733-9.6-21.333-21.333-21.333h-981.333c-11.776 0-21.333 9.6-21.333 21.333 0 11.776 9.557 21.333 21.333 21.333h981.333zM21.359-0.016c-11.776 0-21.333 9.6-21.333 21.333 0 11.776 9.557 21.333 21.333 21.333h981.333c11.733 0 21.333-9.557 21.333-21.333 0-11.733-9.6-21.333-21.333-21.333h-981.333zM277.359 426.651h-21.333v-298.667h21.333c11.733 0 21.333-9.557 21.333-21.333s-9.6-21.333-21.333-21.333h-213.333c-11.776 0-21.333 9.557-21.333 21.333s9.557 21.333 21.333 21.333h21.333v298.667h-21.333c-11.776 0-21.333 9.6-21.333 21.333 0 11.776 9.557 21.333 21.333 21.333h213.333c11.733 0 21.333-9.557 21.333-21.333 0-11.733-9.6-21.333-21.333-21.333zM618.693 426.651h-21.333v-298.667h21.333c11.733 0 21.333-9.557 21.333-21.333s-9.6-21.333-21.333-21.333h-213.333c-11.776 0-21.333 9.557-21.333 21.333s9.557 21.333 21.333 21.333h21.333v298.667h-21.333c-11.776 0-21.333 9.6-21.333 21.333 0 11.776 9.557 21.333 21.333 21.333h213.333c11.733 0 21.333-9.557 21.333-21.333 0-11.733-9.6-21.333-21.333-21.333zM960.026 426.651h-21.333v-298.667h21.333c11.733 0 21.333-9.557 21.333-21.333s-9.6-21.333-21.333-21.333h-213.333c-11.776 0-21.333 9.557-21.333 21.333s9.557 21.333 21.333 21.333h21.333v298.667h-21.333c-11.776 0-21.333 9.6-21.333 21.333 0 11.776 9.557 21.333 21.333 21.333h213.333c11.733 0 21.333-9.557 21.333-21.333 0-11.733-9.6-21.333-21.333-21.333zM21.359 511.984c-9.131 0-17.195 5.76-20.181 14.379s-0.171 18.176 7.040 23.765l492.032 384c7.68 6.059 18.56 6.059 26.283-0.043l489.344-384c7.168-5.632 9.941-15.147 6.997-23.765-3.029-8.576-11.093-14.336-20.181-14.336h-981.333z" />
<glyph unicode="&#xe942;" glyph-name="bank-line" data-tags="bank-line categoryids:54-59-57-283" d="M938.667 128h21.333c11.782 0 21.333-9.551 21.333-21.333s-9.551-21.333-21.333-21.333h-213.333c-11.782 0-21.333 9.551-21.333 21.333s9.551 21.333 21.333 21.333h21.333v298.667h-21.333c-11.782 0-21.333 9.551-21.333 21.333s9.551 21.333 21.333 21.333h213.333c11.782 0 21.333-9.551 21.333-21.333s-9.551-21.333-21.333-21.333h-21.333v-298.667zM896 128v298.667h-85.333v-298.667h85.333zM597.333 128h21.333c11.782 0 21.333-9.551 21.333-21.333s-9.551-21.333-21.333-21.333h-213.333c-11.782 0-21.333 9.551-21.333 21.333s9.551 21.333 21.333 21.333h21.333v298.667h-21.333c-11.782 0-21.333 9.551-21.333 21.333s9.551 21.333 21.333 21.333h213.333c11.782 0 21.333-9.551 21.333-21.333s-9.551-21.333-21.333-21.333h-21.333v-298.667zM554.667 128v298.667h-85.333v-298.667h85.333zM256 128h21.333c11.782 0 21.333-9.551 21.333-21.333s-9.551-21.333-21.333-21.333h-213.333c-11.782 0-21.333 9.551-21.333 21.333s9.551 21.333 21.333 21.333h21.333v298.667h-21.333c-11.782 0-21.333 9.551-21.333 21.333s9.551 21.333 21.333 21.333h213.333c11.782 0 21.333-9.551 21.333-21.333s-9.551-21.333-21.333-21.333h-21.333v-298.667zM213.333 128v298.667h-85.333v-298.667h85.333zM21.333-85.333c-11.782 0-21.333 9.551-21.333 21.333s9.551 21.333 21.333 21.333h981.333c11.782 0 21.333-9.551 21.333-21.333s-9.551-21.333-21.333-21.333h-981.333zM21.333-0c-11.782 0-21.333 9.551-21.333 21.333s9.551 21.333 21.333 21.333h981.333c11.782 0 21.333-9.551 21.333-21.333s-9.551-21.333-21.333-21.333h-981.333zM21.333 512c-20.294 0-29.124 25.664-13.126 38.151l491.989 384c7.731 6.034 18.58 6.020 26.296-0.034l489.344-384c15.943-12.511 7.096-38.116-13.17-38.116h-981.333zM83.339 554.667h857.585l-427.637 335.577-429.949-335.577z" />
<glyph unicode="&#xe943;" glyph-name="beauty" data-tags="beauty categoryid:48" d="M1002.155 468.886h-980.309c-0.043 5.163 1.323 10.24 4.949 14.251 7.296 8.107 180.309 199.083 316.288 199.083 89.259 0 123.136-30.037 145.536-49.92 11.989-10.624 16.469-14.080 23.381-14.080 7.040 0 11.904 3.712 24.107 14.251 22.869 19.797 57.472 49.749 146.56 49.749 135.979 0 307.371-191.019 314.624-199.168 3.541-4.011 4.864-9.045 4.864-14.165zM46.447 426.219h931.029c-56.107-74.667-217.429-255.104-465.493-255.104s-409.429 180.437-465.536 255.104z" />
<glyph unicode="&#xe944;" glyph-name="beauty-line" data-tags="beauty-line categoryid:48" d="M72.54 469.76c3.84 4.267 8.533 9.387 14.080 14.507 22.187 21.76 46.507 43.947 71.68 64.427 38.827 31.573 76.373 56.32 111.36 72.533 27.307 12.373 52.053 18.773 73.387 18.773 50.347 0 79.787-9.387 103.68-27.733 5.12-3.84 21.76-18.773 25.173-21.333 12.8-9.813 24.747-14.933 40.107-14.933 14.933 0 26.88 4.693 39.68 14.080 3.797 3.413 21.291 18.347 26.453 22.187 24.32 18.347 53.717 27.733 104.533 27.733 20.907 0 44.8-6.4 71.253-17.92 35.413-16.213 73.344-41.387 112.597-73.387 25.216-20.48 49.109-42.24 70.869-64.427 5.504-5.12 10.667-10.24 14.080-14.507h-878.933zM512.007 214.187c-124.587 0-235.947 49.92-332.373 133.12-29.44 25.6-55.893 52.48-78.507 79.787h821.76c-22.656-27.307-49.067-54.187-78.507-79.787-96.427-83.2-207.787-133.12-332.373-133.12zM989.447 491.947c-6.4 6.827-13.653 14.507-21.803 22.613-23.040 22.613-47.787 45.653-74.197 67.413-41.813 34.133-82.773 61.44-121.6 78.933-31.616 14.080-61.44 21.76-89.173 21.76-59.776 0-98.56-12.373-130.133-36.267-6.827-5.12-24.32-20.053-26.88-22.187-5.547-4.267-8.96-5.547-13.653-5.547s-8.107 1.28-13.653 5.973c-2.133 1.707-19.2 16.64-26.027 21.76-31.147 23.893-69.547 36.267-129.28 36.267-28.16 0-58.88-8.107-91.307-22.613-38.4-17.92-78.933-44.8-120.32-78.080-26.453-21.76-51.627-44.373-74.667-67.413-8.107-8.107-15.36-15.787-21.76-22.187-3.84-4.267-6.827-7.253-8.107-8.96-6.4-6.827-7.253-17.493-2.133-25.173 1.28-2.56 4.267-6.827 8.533-12.8 6.827-10.24 14.933-20.907 24.32-32.853 26.453-33.28 58.027-66.56 94.293-97.707 103.68-89.6 224-143.36 360.107-143.36s256.427 53.76 360.107 143.36c36.267 31.147 67.84 64.427 94.293 97.707 9.387 11.947 17.451 22.613 24.32 32.853 4.267 5.973 7.211 10.24 8.533 12.8 5.12 7.68 4.224 18.347-2.133 25.173-1.28 1.707-3.84 4.693-7.68 8.533z" />
<glyph unicode="&#xe945;" glyph-name="billfold" data-tags="billfold categoryids:3-936-937-938" d="M913.098 469.247h-21.29v106.658c0 53.277-40.711 80.071-85.368 106.658h-618.554c-35.31 0-63.974 28.664-63.974 63.974s28.664 63.974 63.974 63.974h510.234c11.735 0 21.29-9.555 21.29-21.29 0-11.839-9.555-21.29-21.29-21.29h-510.234c-11.839 0-21.29-9.555-21.29-21.29 0-11.839 9.555-21.29 21.29-21.29h618.554v42.684c0 59.82-66.57 127.948-149.342 127.948h-511.792c-82.356-0.104-149.342-67.090-149.342-149.446v-639.844c0-82.356 66.986-149.342 149.342-149.342h597.264c82.356 0 149.342 66.986 149.342 149.342v106.554h21.29c58.781 0 106.658 47.773 106.658 106.658v42.684c-0.104 58.781-47.877 106.658-106.762 106.658zM699.782 639.879h42.684c11.839 0 21.29-9.555 21.29-21.29s-9.451-21.29-21.29-21.29h-42.684c-11.735 0-21.29 9.555-21.29 21.29s9.555 21.29 21.29 21.29zM571.834 639.879h42.684c11.839 0 21.29-9.555 21.29-21.29s-9.451-21.29-21.29-21.29h-42.684c-11.735 0-21.29 9.555-21.29 21.29s9.555 21.29 21.29 21.29zM230.569 42.615h-42.684c-11.735 0-21.29 9.555-21.29 21.29s9.555 21.29 21.29 21.29h42.684c11.839 0 21.29-9.555 21.29-21.29s-9.451-21.29-21.29-21.29zM230.569 597.195h-42.684c-11.735 0-21.29 9.555-21.29 21.29s9.555 21.29 21.29 21.29h42.684c11.839 0 21.29-9.555 21.29-21.29s-9.451-21.29-21.29-21.29zM358.517 42.615h-42.684c-11.735 0-21.29 9.555-21.29 21.29s9.555 21.29 21.29 21.29h42.684c11.839 0 21.29-9.555 21.29-21.29s-9.451-21.29-21.29-21.29zM358.517 597.195h-42.684c-11.735 0-21.29 9.555-21.29 21.29s9.555 21.29 21.29 21.29h42.684c11.839 0 21.29-9.555 21.29-21.29s-9.451-21.29-21.29-21.29zM486.569 42.615h-42.684c-11.735 0-21.29 9.555-21.29 21.29s9.555 21.29 21.29 21.29h42.684c11.839 0 21.29-9.555 21.29-21.29s-9.451-21.29-21.29-21.29zM486.569 597.195h-42.684c-11.735 0-21.29 9.555-21.29 21.29s9.555 21.29 21.29 21.29h42.684c11.839 0 21.29-9.555 21.29-21.29s-9.451-21.29-21.29-21.29zM614.517 42.615h-42.684c-11.735 0-21.29 9.555-21.29 21.29s9.555 21.29 21.29 21.29h42.684c11.839 0 21.29-9.555 21.29-21.29s-9.451-21.29-21.29-21.29zM742.466 42.615h-42.684c-11.735 0-21.29 9.555-21.29 21.29s9.555 21.29 21.29 21.29h42.684c11.839 0 21.29-9.555 21.29-21.29s-9.451-21.29-21.29-21.29zM977.072 319.905c0-35.31-28.768-63.974-63.974-63.974h-213.316c-35.31 0-63.974 28.664-63.974 63.974v42.684c0 35.31 28.664 63.974 63.974 63.974h213.316c35.206 0 63.974-28.664 63.974-63.974v-42.684zM721.176 383.879c-23.471 0-42.684-19.213-42.684-42.684 0-23.575 19.213-42.684 42.684-42.684 23.575 0 42.684 19.109 42.684 42.684s-19.109 42.684-42.684 42.684z" />
<glyph unicode="&#xe946;" glyph-name="billfold-line" data-tags="billfold-line categoryids:3-936-937-938" d="M768.064 723.83v65.534c0 32.887-46.688 64.005-106.676 64.005h-512.043c-58.623 0-106.676-48.053-106.676-106.676v-640.053c0-58.623 48.053-106.676 106.676-106.676h597.383c58.596 0 106.676 48.069 106.676 106.676v106.676h-149.431c-58.72 0-106.676 47.955-106.676 106.676v42.67c0 58.72 47.955 106.676 106.676 106.676h149.431v106.676c0 58.607-48.080 106.676-106.676 106.676h-597.383c-35.38 0-64.005 28.626-64.005 64.005 0 35.348 28.637 64.005 64.005 64.005h512.043c11.783 0 21.335-9.552 21.335-21.335s-9.552-21.335-21.335-21.335h-512.043c-11.796 0-21.335-9.546-21.335-21.335 0-11.814 9.522-21.335 21.335-21.335h597.383c7.24 0 14.363-0.522 21.335-1.529zM810.734 710.869c50.353-24.069 85.34-75.556 85.34-134.856v-106.676h21.25c58.75 0 106.676-47.942 106.676-106.676v-42.67c0-58.733-47.926-106.676-106.676-106.676h-21.25v-106.676c0-82.175-67.186-149.346-149.346-149.346h-597.383c-82.189 0-149.346 67.157-149.346 149.346v640.053c0 82.189 67.157 149.346 149.346 149.346h512.043c80.768 0 149.346-45.708 149.346-106.676v-78.495zM192.016 597.348c-11.783 0-21.335 9.552-21.335 21.335s9.552 21.335 21.335 21.335h42.67c11.783 0 21.335-9.552 21.335-21.335s-9.552-21.335-21.335-21.335h-42.67zM320.027 597.348c-11.783 0-21.335 9.552-21.335 21.335s9.552 21.335 21.335 21.335h42.67c11.783 0 21.335-9.552 21.335-21.335s-9.552-21.335-21.335-21.335h-42.67zM448.037 597.348c-11.783 0-21.335 9.552-21.335 21.335s9.552 21.335 21.335 21.335h42.67c11.783 0 21.335-9.552 21.335-21.335s-9.552-21.335-21.335-21.335h-42.67zM576.048 597.348c-11.783 0-21.335 9.552-21.335 21.335s9.552 21.335 21.335 21.335h42.67c11.783 0 21.335-9.552 21.335-21.335s-9.552-21.335-21.335-21.335h-42.67zM704.059 597.348c-11.783 0-21.335 9.552-21.335 21.335s9.552 21.335 21.335 21.335h42.67c11.783 0 21.335-9.552 21.335-21.335s-9.552-21.335-21.335-21.335h-42.67zM192.016 42.635c-11.783 0-21.335 9.552-21.335 21.335s9.552 21.335 21.335 21.335h42.67c11.783 0 21.335-9.552 21.335-21.335s-9.552-21.335-21.335-21.335h-42.67zM320.027 42.635c-11.783 0-21.335 9.552-21.335 21.335s9.552 21.335 21.335 21.335h42.67c11.783 0 21.335-9.552 21.335-21.335s-9.552-21.335-21.335-21.335h-42.67zM448.037 42.635c-11.783 0-21.335 9.552-21.335 21.335s9.552 21.335 21.335 21.335h42.67c11.783 0 21.335-9.552 21.335-21.335s-9.552-21.335-21.335-21.335h-42.67zM576.048 42.635c-11.783 0-21.335 9.552-21.335 21.335s9.552 21.335 21.335 21.335h42.67c11.783 0 21.335-9.552 21.335-21.335s-9.552-21.335-21.335-21.335h-42.67zM704.059 42.635c-11.783 0-21.335 9.552-21.335 21.335s9.552 21.335 21.335 21.335h42.67c11.783 0 21.335-9.552 21.335-21.335s-9.552-21.335-21.335-21.335h-42.67zM981.33 319.991v42.67c0 35.171-28.825 64.005-64.005 64.005h-213.351c-35.154 0-64.005-28.851-64.005-64.005v-42.67c0-35.154 28.851-64.005 64.005-64.005h213.351c35.18 0 64.005 28.835 64.005 64.005zM768.064 341.327c0-23.554-19.202-42.67-42.67-42.67-23.639 0-42.67 19.116-42.67 42.67s19.031 42.67 42.67 42.67c23.469 0 42.67-19.116 42.67-42.67z" />
<glyph unicode="&#xe947;" glyph-name="books" data-tags="books categoryid:89" d="M74.208 845.541c6.272 3.883 14.123 4.224 20.736 0.939l395.819-197.888v-709.035l-414.891 207.403c-7.253 3.627-11.776 11.008-11.776 19.115v661.333c0 7.381 3.797 14.251 10.112 18.133zM949.792 845.541c6.272-3.883 10.112-10.752 10.112-18.133v-661.333c0-8.107-4.523-15.488-11.776-19.115l-414.72-207.403v709.035l395.648 197.888c6.613 3.285 14.464 2.944 20.736-0.939zM872.373 902.062c5.333-10.581 1.109-23.339-9.429-28.672l-341.333-172.715c-2.987-1.536-6.272-2.304-9.6-2.304-3.285 0-6.613 0.768-9.643 2.304l-341.333 172.715c-10.496 5.333-14.72 18.091-9.429 28.672 5.376 10.496 18.176 14.72 28.672 9.387l331.733-167.851 331.691 167.851c10.496 5.376 23.339 1.109 28.672-9.387z" />
<glyph unicode="&#xe948;" glyph-name="books-line" data-tags="books-line categoryid:89" d="M917.333 182.998v613.547l-384-192v-613.547l384 192zM106.667 796.544v-613.547l384-192v613.547l-384 192zM929.28 849.878c14.080 7.253 30.72-2.987 30.72-18.773v-661.333c0-8.107-4.693-15.36-11.947-19.2l-426.667-213.333c-5.973-2.987-12.8-2.987-18.773 0l-2.56 1.323-424.107 212.011c-7.253 3.84-11.947 11.093-11.947 19.2v661.333c0 15.787 16.64 26.027 30.72 18.773l417.28-208.213 417.28 208.213zM862.707 877.184l-341.333-172.8c-5.973-2.987-12.8-2.987-19.2 0l-341.333 172.8c-10.197 5.12-14.507 17.92-9.387 28.587 5.547 10.24 18.347 14.507 28.587 9.387l331.947-168.107 331.52 168.107c10.667 5.12 23.509 0.853 29.013-9.387 5.163-10.667 0.853-23.467-9.813-28.587z" />
<glyph unicode="&#xe949;" glyph-name="bus" data-tags="bus categoryids:34-288" d="M874.647 511.974c11.749 0 21.314 9.565 21.314 21.314v256.078c0 82.344-66.957 149.301-149.301 149.301h-469.32c-84.112 0-149.301-68.828-149.301-127.987v-789.028c0-11.853 9.565-21.314 21.314-21.314h21.314v-64.357c0-11.749 9.565-21.314 21.314-21.314h127.987c11.749 0 21.314 9.565 21.314 21.314v64.357h341.333v-64.357c0-11.749 9.565-21.314 21.314-21.314h127.987c11.749 0 21.314 9.565 21.314 21.314v64.357h21.314c11.749 0 21.314 9.461 21.314 21.314v212.93c0 11.749-9.565 21.314-21.314 21.314h-21.314v256.078h21.418zM298.654-42.705h-85.359v42.628h85.359v-42.628zM298.654 85.282h-127.987v85.359h127.987v-85.359zM170.667 256v255.974h384.065v-255.974h-384.065zM357.605 42.654l38.469 85.359h231.853l38.365-85.359h-308.687zM234.608 597.334c-11.749 0-21.314 9.565-21.314 21.314v127.987c0 11.749 9.565 21.314 21.314 21.314h554.68c11.749 0 21.314-9.565 21.314-21.314v-127.987c0-11.749-9.565-21.314-21.314-21.314h-554.68zM810.706 511.974v-255.974h-85.359v255.974h85.359zM810.706-42.705h-85.359v42.628h85.359v-42.628zM853.333 85.282h-127.987v85.359h127.987v-85.359z" />
<glyph unicode="&#xe94a;" glyph-name="bus-line" data-tags="bus-line categoryids:34-288" d="M170.667 213.334v-42.667h106.667c11.782 0 21.333-9.551 21.333-21.333v-85.333c0-11.782-9.551-21.333-21.333-21.333h-106.667v-42.667h136.149l58.104 116.207c3.614 7.227 11.001 11.793 19.081 11.793h256c8.080 0 15.467-4.565 19.081-11.793l58.104-116.207h136.149v42.667h-106.667c-11.782 0-21.333 9.551-21.333 21.333v85.333c0 11.782 9.551 21.333 21.333 21.333h106.667v42.667h-149.333c-11.782 0-21.333 9.551-21.333 21.333v298.667c0 11.782 9.551 21.333 21.333 21.333h149.333v234.667c0 58.901-47.777 106.667-106.667 106.667h-469.333c-58.917 0-106.667-47.75-106.667-106.667v-234.667h405.333c11.782 0 21.333-9.551 21.333-21.333v-298.667c0-11.782-9.551-21.333-21.333-21.333h-405.333zM725.333-42.666h-426.667v-21.333c0-11.782-9.551-21.333-21.333-21.333h-85.333c-11.782 0-21.333 9.551-21.333 21.333v21.333h-21.333c-11.782 0-21.333 9.551-21.333 21.333v810.667c0 82.481 66.853 149.333 149.333 149.333h469.333c82.452 0 149.333-66.866 149.333-149.333v-256c0-11.782-9.551-21.333-21.333-21.333h-21.333v-256h21.333c11.782 0 21.333-9.551 21.333-21.333v-256c0-11.782-9.551-21.333-21.333-21.333h-21.333v-21.333c0-11.782-9.551-21.333-21.333-21.333h-85.333c-11.782 0-21.333 9.551-21.333 21.333v21.333zM626.815 85.334h-229.631l-42.667-85.333h314.964l-42.667 85.333zM256 85.334v42.667h-85.333v-42.667h85.333zM853.333 85.334v42.667h-85.333v-42.667h85.333zM725.333 512v-256h85.333v256h-85.333zM170.667 512v-256h384v256h-384zM789.333 768c11.782 0 21.333-9.551 21.333-21.333v-128c0-11.782-9.551-21.333-21.333-21.333h-554.667c-11.782 0-21.333 9.551-21.333 21.333v128c0 11.782 9.551 21.333 21.333 21.333h554.667zM768 725.334h-512v-85.333h512v85.333z" />
<glyph unicode="&#xe94b;" glyph-name="cafes" data-tags="cafes" d="M266.090 439.058l97.231-27.307c12.757 5.528 26.479 8.844 41.058 9.95h208.184c15.437-1.106 30.016-4.754 43.309-10.945l98.196 27.528v83.249h48.562c78.9 0 145.579 68.213 145.579 150.135 0 82.806-65.285 150.135-145.579 150.135h-48.562v25.096c0 13.819-10.827 24.986-24.227 24.986h-485.405c-13.4 0-24.227-11.166-24.227-24.986v-405.298c0.429-0.221 0.75-0.553 1.179-0.774 14.472 2.543 29.695 2.432 44.703-1.769zM754.069 772.163h48.562c53.493 0 97.124-45.217 97.124-100.385s-43.524-100.164-97.124-100.164h-48.562v200.548zM1011.958 512.818c25.943-64.786 11.578-200.106-58.853-310.551-1.501 4.312-2.894 8.623-4.931 12.714l-86.082 173.351c-6.432 12.824-15.115 23.548-25.299 32.503 19.725 18.905 33.447 42.343 46.096 64.233 19.511 33.83 39.664 68.876 79.007 68.876 12.542 0 35.698-5.307 50.063-41.127zM187.312 420.725c-10.184-8.844-18.975-19.568-25.192-32.393l-86.189-173.462c-2.037-4.091-3.43-8.402-4.931-12.603-70.538 110.556-84.903 245.876-58.96 310.551 14.365 35.82 37.52 41.127 50.063 41.127 39.343 0 59.496-35.046 79.007-68.876 12.65-21.89 26.479-45.328 46.204-64.343zM296.93 326.667l-80.401-240.348c-4.502-14.483-5.574-29.297-4.181-43.559-41.165 14.593-76.541 35.157-98.196 49.418-24.549 16.141-33.125 48.534-19.832 75.288l86.189 173.351c12.114 24.101 38.914 36.483 64.749 29.518l63.892-17.91c-5.146-7.96-9.434-16.473-12.221-25.76zM838.561 340.726l86.189-173.351c13.293-26.865 4.717-59.147-19.832-75.288-22.834-15.036-60.997-36.926-104.842-51.519 1.822 15.478 0.858 31.508-4.074 47.539l-79.114 236.479c-2.894 9.508-7.182 18.131-12.221 26.202l69.145 19.458c25.514 7.186 52.743-5.307 64.749-29.518zM662.131 330.695l79.436-237.584c9.219-29.961-5.682-61.469-33.661-72.303-67.429-26.091-135.931-39.358-203.574-39.358s-136.145 13.267-203.574 39.247c-28.087 10.724-42.88 42.343-33.875 71.64l79.972 239.022c7.182 23.548 28.73 39.8 53.386 40.906h208.398c24.656-0.995 46.096-17.357 53.493-41.569z" />
<glyph unicode="&#xe94c;" glyph-name="cafes-line" data-tags="cafes-line" d="M747.004 499.153v-126.861l14.859 4.047c12.309 3.324 24.929 2.161 35.954-2.649 30.302 10.388 51.866 29.932 72.67 61.286 6.048 9.116 24.894 40.83 28.301 46.106 19.026 29.457 37.028 44.484 64.19 44.484 102.501 0 70.25-263.162-54.732-388.468-4.257-8.679-10.868-16.315-19.55-21.859-48.249-30.691-100.688-53.62-152.962-60.416-5.96-11.811-16.215-21.484-29.514-26.486-131.22-49.128-262.933-49.128-394.165 0.004-13.625 5.11-24.043 15.106-29.901 27.354-50.233 7.732-100.464 30.057-146.855 59.566-8.674 5.539-15.279 13.175-19.53 21.857-125.014 125.321-157.254 388.448-54.712 388.448 27.169 0 45.173-15.033 64.201-44.504 3.406-5.274 22.239-36.977 28.283-46.089 20.803-31.363 42.362-50.907 72.66-61.292 1.256 0.548 2.532 1.049 3.827 1.501v429.457c0 12.978 10.521 23.499 23.499 23.499h469.978c12.978 0 23.499-10.521 23.499-23.499v-23.499h46.998c77.882 0 140.993-63.111 140.993-140.993s-63.111-140.993-140.993-140.993h-46.998zM747.004 546.15h46.998c51.926 0 93.996 42.070 93.996 93.996s-42.070 93.996-93.996 93.996h-46.998v-187.991zM277.026 372.293l97.582-26.568c9.371 7.397 21.148 11.701 33.678 11.701h201.715c13.183 0 25.533-4.763 35.123-12.882l54.882 14.948v421.648h-422.98v-408.846zM730.622 319.12c-0.611-0.194-1.233-0.364-1.865-0.508l-60.914-16.591 68.828-199.552c42.15 6.929 86.163 26.573 126.765 52.401 3.179 2.030 4.31 6.208 2.59 9.57l-83.371 162.747c-1.608 3.137-5.135 4.697-8.491 3.791l-43.541-11.859zM350.95 303.458l-101.034 27.508c-3.405 0.919-6.932-0.64-8.538-3.772l-83.369-162.743c-1.726-3.373-0.595-7.551 2.549-9.558 38.908-24.749 80.919-43.814 121.423-51.472l68.969 200.037zM193.257 336.338c-32.209 15.102-56.666 39.164-78.881 72.657-6.856 10.337-25.889 42.375-28.6 46.573-11.185 17.322-17.983 22.999-24.719 22.999-6.816 0-17.893-41.037-10.75-99.215 7.8-63.526 33.024-128.091 72.945-179.67l70.005 136.656zM900.776 199.686c39.903 51.577 65.116 116.139 72.916 179.666 7.143 58.172-3.925 99.215-10.714 99.215-6.733 0-13.53-5.673-24.711-22.985-2.712-4.199-21.756-36.249-28.618-46.59-22.215-33.482-46.674-57.54-78.881-72.642l70.009-136.664zM617.207 304.692c-1.156 3.641-4.015 5.736-7.206 5.736h-201.715c-3.192 0-6.050-2.095-7.205-5.732l-76.994-223.32c-1.176-3.695 0.746-7.635 4.459-9.027 120.594-45.15 240.601-45.15 361.162-0.013 3.713 1.397 5.683 5.423 4.717 8.505l-77.217 223.851z" />
<glyph unicode="&#xe94d;" glyph-name="candy" data-tags="candy categoryid:83" d="M513.461 443.163c79.829 0 158.037 27.093 235.52 80.64 12.459-30.421 19.029-63.275 19.029-97.152 0-2.987-0.341-5.931-0.427-8.96-161.109-134.997-341.077-134.869-510.635 0.256-1.152 34.603 4.224 69.205 16.939 101.888 82.048-51.029 161.621-76.672 239.573-76.672zM266.711 357.787c81.237-55.595 165.504-83.84 248.96-83.84 82.944 0 164.992 27.904 242.517 82.816-11.733-41.6-33.749-79.744-65.195-111.147-48.341-48.341-112.597-74.965-180.992-74.965-47.061 0-92.075 12.885-131.456 36.565 41.685-109.099-52.608-243.925-57.344-250.539-4.096-5.76-10.667-8.96-17.365-8.96-3.285 0-6.571 0.725-9.685 2.347-9.387 4.821-13.909 15.701-10.581 25.771 19.669 58.965-40.107 118.016-98.688 98.731-7.637-2.688-16.085-0.555-21.845 5.12-5.717 5.717-7.68 14.165-5.163 21.845 19.627 58.795-39.851 118.144-98.688 98.731-9.984-3.371-21.035 1.152-25.771 10.539-4.779 9.387-2.005 20.907 6.571 27.051 3.925 2.773 96.469 68.096 190.208 68.096 22.144 0 42.453-3.712 61.013-10.837-11.563 19.883-20.437 40.917-26.496 62.677zM988.585 642.493c4.779-9.429 2.005-20.907-6.571-27.051-3.925-2.773-96.469-68.053-190.165-68.053-23.936 0-45.739 4.437-65.493 12.757-140.885-98.091-279.467-99.157-433.109-2.005 10.539 17.493 22.571 34.432 37.717 49.579 48.384 48.299 112.683 74.923 181.035 74.923 47.104 0 92.117-12.885 131.456-36.565-41.643 109.141 52.651 243.968 57.344 250.581 6.101 8.619 17.664 11.435 27.051 6.613s13.909-15.744 10.581-25.728c-19.755-59.136 40.405-118.357 98.688-98.773 7.765 2.517 16.213 0.512 21.845-5.163 5.717-5.717 7.723-14.165 5.163-21.803-19.669-58.923 40.277-118.443 98.688-98.731 10.112 3.285 20.992-1.109 25.771-10.581z" />
<glyph unicode="&#xe94e;" glyph-name="candy-line" data-tags="candy-line categoryid:83" d="M796.577 590.090c-35.413-0.853-64.853 9.387-88.32 32.853s-33.707 52.907-32.853 88.32c0.853 30.72 10.24 64 25.6 98.133 18.773-45.653 65.28-78.933 116.48-77.227-1.707-51.2 31.573-97.707 77.227-116.48-34.133-15.36-67.413-24.747-98.133-25.6zM299.084 416.010c-2.133 35.84 5.12 71.68 21.333 104.533 118.187-67.84 264.96-68.267 383.147 0 16.213-32.853 23.467-68.693 21.333-104.533-123.733-99.413-301.653-99.84-425.813 0zM663.031 275.636c-83.627-83.2-218.453-83.2-302.080 0-23.467 23.467-40.107 51.2-50.347 80.64 122.88-76.416 279.893-76.416 402.773 0-10.197-29.44-26.88-57.173-50.347-80.64zM322.977 43.956c-18.773 45.653-65.28 78.933-116.48 77.227 1.707 51.2-31.573 97.707-77.227 116.48 34.133 15.36 67.413 24.747 98.133 25.6 35.413 0.853 64.853-9.387 88.32-32.853s33.707-52.907 32.853-88.32c-0.853-30.72-10.24-64-25.6-98.133zM360.951 577.716c83.627 83.2 218.453 83.2 302.080 0 6.827-6.827 12.8-13.653 17.92-20.907-104.107-59.733-233.813-59.733-337.92 0 5.12 7.253 11.093 14.080 17.92 20.907zM962.977 653.236c-58.837-19.627-118.613 39.68-98.987 98.56 5.547 16.64-10.24 32.427-26.88 26.88-58.88-19.627-118.187 40.107-98.56 98.987 7.68 23.040-23.467 38.827-37.547 19.2-2.56-3.413-6.4-8.96-11.093-16.64-7.68-13.227-15.787-27.307-23.040-42.667-20.48-42.24-32.853-84.48-34.133-125.013-0.853-23.893 2.56-46.080 10.667-66.56-98.133 59.733-227.84 46.507-312.32-38.4-84.907-84.48-98.133-214.187-38.4-312.32-20.48 8.107-42.667 11.52-66.56 10.667-40.533-1.28-82.773-13.653-125.013-34.133-15.36-7.253-29.44-15.36-42.667-23.040-7.68-4.693-13.227-8.533-16.64-11.093-19.627-14.080-3.84-45.227 19.2-37.547 58.88 19.627 118.613-39.68 98.987-98.56-5.547-16.64 10.24-32.427 26.88-26.88 58.88 19.627 118.187-40.149 98.56-98.987-7.68-23.040 23.467-38.869 37.547-19.2 2.56 3.371 6.4 8.96 11.093 16.64 7.68 13.227 15.787 27.307 23.040 42.667 20.48 42.24 32.853 84.48 34.133 125.013 0.853 23.893-2.56 46.080-10.667 66.56 98.133-59.733 227.84-46.549 312.32 38.4 84.949 84.48 98.133 214.187 38.4 312.32 20.48-8.107 42.667-11.52 66.56-10.667 40.533 1.28 82.773 13.653 125.013 34.133 15.36 7.253 29.44 15.36 42.667 23.040 7.68 4.693 13.269 8.533 16.64 10.667 19.669 14.507 3.84 45.653-19.2 37.973z" />
<glyph unicode="&#xe94f;" glyph-name="car" data-tags="car categoryid:38" d="M1024.104 490.673v85.307c0 11.845-9.559 21.301-21.301 21.301h-128.117c-4.468 0-8.313-1.663-11.741-3.948l-53.408 160.12c-2.909 8.728-11.014 14.547-20.158 14.547h-554.654c-9.248 0-17.352-5.923-20.262-14.547l-53.304-160.12c-3.429 2.286-7.377 3.948-11.741 3.948h-128.117c-11.845 0-21.301-9.559-21.301-21.301v-85.307c0-11.845 9.559-21.301 21.301-21.301h76.475l-91.542-91.542c-1.974-1.974-3.533-4.26-4.676-6.962-1.039-2.494-1.663-5.403-1.663-8.209v-170.719c0-11.845 9.559-21.301 21.301-21.301h21.301v-64.006c0-11.845 9.559-21.301 21.301-21.301h128.013c11.845 0 21.301 9.559 21.301 21.301v64.006h128.013v-21.301c0-11.845 9.559-21.301 21.301-21.301h298.732c11.845 0 21.301 9.559 21.301 21.301v21.301h128.013v-64.006c0-11.845 9.559-21.301 21.301-21.301h128.013c11.845 0 21.301 9.559 21.301 21.301v64.006h21.301c11.845 0 21.301 9.559 21.301 21.301v170.719c0 2.805-0.623 5.715-1.663 8.209-1.039 2.598-2.702 4.988-4.676 6.962l-91.542 91.542h76.475c12.261-0.104 21.82 9.456 21.82 21.301zM42.706 511.974v42.706h85.307v-42.706h-85.307zM170.719 127.935h-85.411v42.706h85.307v-42.706h0.104zM170.719 298.654h-128.013v42.706h128.013v-42.706zM640.065 170.641h-256.026v85.307h256.026v-85.307zM490.751 362.661v42.706c0 11.845 9.559 21.301 21.301 21.301 11.845 0 21.301-9.559 21.301-21.301v-42.706c0-11.845-9.559-21.301-21.301-21.301-11.845 0-21.301 9.456-21.301 21.301zM178.927 511.974l71.176 213.32h523.897l71.072-213.32h-666.146zM938.693 127.935h-85.307v42.706h85.307v-42.706zM981.398 341.36v-42.706h-128.013v42.706h128.013zM981.398 511.974h-85.307v42.706h85.307v-42.706z" />
<glyph unicode="&#xe950;" glyph-name="car-line" data-tags="car-line categoryid:38" d="M981.333 256h-149.333c-11.782 0-21.333 9.551-21.333 21.333v85.333c0 11.782 9.551 21.333 21.333 21.333h119.163l-85.333 85.333h-707.66l-85.333-85.333h119.163c11.782 0 21.333-9.551 21.333-21.333v-85.333c0-11.782-9.551-21.333-21.333-21.333h-149.333v-42.667h298.667v64c0 11.782 9.551 21.333 21.333 21.333h298.667c11.782 0 21.333-9.551 21.333-21.333v-64h298.667v42.667zM1024 277.334v42.667-128c0-11.782-9.551-21.333-21.333-21.333h-21.333v-64c0-11.782-9.551-21.333-21.333-21.333h-128c-11.782 0-21.333 9.551-21.333 21.333v64h-128v-21.333c0-11.782-9.551-21.333-21.333-21.333h-298.667c-11.782 0-21.333 9.551-21.333 21.333v21.333h-128v-64c0-11.782-9.551-21.333-21.333-21.333h-128c-11.782 0-21.333 9.551-21.333 21.333v64h-21.333c-11.782 0-21.333 9.551-21.333 21.333v170.667c0 5.658 2.248 11.084 6.248 15.085l91.582 91.582h-76.497c-11.782 0-21.333 9.551-21.333 21.333v85.333c0 11.782 9.551 21.333 21.333 21.333h128c4.398 0 8.485-1.331 11.881-3.612l53.23 159.691c2.904 8.711 11.056 14.587 20.239 14.587h554.667c9.183 0 17.335-5.876 20.239-14.587l53.224-159.673c3.39 2.27 7.468 3.594 11.854 3.594h128c11.782 0 21.333-9.551 21.333-21.333v-85.333c0-11.782-9.551-21.333-21.333-21.333h-76.497l91.582-91.582c4.001-4.001 6.248-9.427 6.248-15.085v-42.667c0-36.299 0-50.521 0-42.667zM529.493 362.667c0-11.782-9.551-21.333-21.333-21.333s-21.333 9.551-21.333 21.333v42.667c0 11.782 9.551 21.333 21.333 21.333s21.333-9.551 21.333-21.333v-42.667zM170.667 128v42.667h-85.333v-42.667h85.333zM938.667 128v42.667h-85.333v-42.667h85.333zM640 170.667v85.333h-256v-85.333h256zM773.973 725.334h-523.914l-71.111-213.333h666.136l-71.111 213.333zM128 512v42.667h-85.333v-42.667h85.333zM981.333 512v42.667h-85.333v-42.667h85.333zM170.667 298.667v42.667h-128v-42.667h128zM981.333 298.667v42.667h-128v-42.667h128z" />
<glyph unicode="&#xe951;" glyph-name="card1" data-tags="card categoryids:211-935-927-928-929-930-931-932-933-934" d="M917.338 746.667c58.737 0 106.662-47.823 106.662-106.667v-64.042h-1024v64.042c0 58.843 47.821 106.667 106.662 106.667h810.675zM0 213.334v320h1024v-320c0-58.843-47.925-106.667-106.662-106.667h-810.675c-58.841 0-106.662 47.927-106.662 106.667zM746.636 447.98c-11.747 0-21.312-9.565-21.312-21.313s9.564-21.313 21.312-21.313h127.974c11.747 0 21.312 9.565 21.312 21.313s-9.564 21.313-21.312 21.313h-127.974zM149.286 447.98c-11.747 0-21.312-9.565-21.312-21.313s9.564-21.313 21.312-21.313h341.403c11.747 0 21.312 9.565 21.312 21.313s-9.564 21.313-21.312 21.313h-341.403zM149.286 362.625c-11.747 0-21.312-9.565-21.312-21.313s9.564-21.313 21.312-21.313h127.974c11.747 0 21.312 9.565 21.312 21.313s-9.564 21.313-21.312 21.313h-127.974z" />
<glyph unicode="&#xe952;" glyph-name="card-line" data-tags="card-line categoryids:211-935-927-928-929-930-931-932-933-934" d="M42.667 533.334v-320c0-35.322 28.678-64 64-64h810.667c35.322 0 64 28.678 64 64v320h-938.667zM42.667 576h938.667v64c0 35.322-28.678 64-64 64h-810.667c-35.322 0-64-28.678-64-64v-64zM1024 213.334c0-58.886-47.781-106.667-106.667-106.667h-810.667c-58.886 0-106.667 47.781-106.667 106.667v426.667c0 58.886 47.781 106.667 106.667 106.667h810.667c58.886 0 106.667-47.781 106.667-106.667v-426.667zM874.667 448c11.782 0 21.333-9.551 21.333-21.333s-9.551-21.333-21.333-21.333h-128c-11.782 0-21.333 9.551-21.333 21.333s9.551 21.333 21.333 21.333h128zM490.667 448c11.782 0 21.333-9.551 21.333-21.333s-9.551-21.333-21.333-21.333h-341.333c-11.782 0-21.333 9.551-21.333 21.333s9.551 21.333 21.333 21.333h341.333zM277.333 362.667c11.782 0 21.333-9.551 21.333-21.333s-9.551-21.333-21.333-21.333h-128c-11.782 0-21.333 9.551-21.333 21.333s9.551 21.333 21.333 21.333h128z" />
<glyph unicode="&#xe953;" glyph-name="child-clothing" data-tags="child-clothing categoryid:42" d="M704 184.064c0 19.925-5.291 39.68-15.403 58.112 22.485 15.616 36.736 41.557 36.736 69.888 0 47.061-38.272 85.333-85.333 85.333-41.173 0-75.563-29.269-83.584-68.096-14.635 2.731-29.483 4.096-44.416 4.096s-29.781-1.365-44.416-4.096c-8.021 38.827-42.411 68.096-83.584 68.096-47.019 0-85.333-38.272-85.333-85.333 0-28.331 14.251-54.272 36.736-69.888-10.112-18.432-15.403-38.187-15.403-58.112 0-82.347 86.144-149.333 192-149.333s192 66.987 192 149.333zM646.443 934.144c221.952-59.691 377.557-262.997 377.557-494.080 0-282.325-229.675-512-512-512s-512 229.675-512 512c0 231.083 155.648 434.389 378.453 494.336 8.448 2.688 17.92 4.267 27.221 4.267 41.813 0 78.208-32 82.773-72.875 3.584-31.701-13.909-73.6-74.837-87.424-85.12-19.413-117.333-86.443-111.232-140.416 6.955-61.781 66.005-133.888 209.621-133.888s202.667 72.107 209.621 133.888c6.101 53.973-26.112 121.003-111.232 140.416-60.928 13.824-78.421 55.723-74.837 87.424 5.632 49.92 59.563 84.651 110.891 68.352zM469.333 205.398c0 11.733-9.557 21.333-21.333 21.333s-21.333-9.6-21.333-21.333c0-11.819 9.557-21.333 21.333-21.333s21.333 9.515 21.333 21.333zM597.333 205.398c0 11.733-9.557 21.333-21.333 21.333s-21.333-9.6-21.333-21.333c0-11.819 9.557-21.333 21.333-21.333s21.333 9.515 21.333 21.333z" />
<glyph unicode="&#xe954;" glyph-name="child-clothing-line" data-tags="child-clothing-line categoryid:42" d="M512 326.731c15.029 0 29.89-1.391 44.412-4.088 7.981 38.85 42.385 68.088 83.588 68.088 47.11 0 85.333-38.223 85.333-85.333 0-28.691-14.312-54.436-36.747-69.937 10.032-18.183 15.413-37.783 15.413-58.063 0-84.058-87.059-149.333-192-149.333s-192 65.275-192 149.333c0 20.281 5.381 39.881 15.413 58.063-22.434 15.501-36.747 41.245-36.747 69.937 0 47.11 38.223 85.333 85.333 85.333 41.203 0 75.607-29.238 83.588-68.088 14.521 2.697 29.383 4.088 44.412 4.088zM512 284.065c-20.147 0-39.93-3.032-58.732-8.792-14.996-4.595-29.657 8.020-27.241 24.273 0.489 3.279 0.639 4.659 0.639 5.853 0 23.546-19.121 42.667-42.667 42.667s-42.667-19.121-42.667-42.667c0-19.194 12.885-35.766 31.28-40.889 14.833-4.131 20.539-22.134 10.793-34.054-13.612-16.649-20.74-34.694-20.74-53.057 0-57.388 65.724-106.667 149.333-106.667s149.333 49.279 149.333 106.667c0 18.363-7.128 36.408-20.74 53.057-9.746 11.92-4.040 29.924 10.793 34.054 18.395 5.123 31.28 21.694 31.28 40.889 0 23.546-19.121 42.667-42.667 42.667s-42.667-19.121-42.667-42.667c0-1.193 0.151-2.573 0.749-6.591 2.306-15.514-12.355-28.129-27.351-23.534-18.802 5.76-38.585 8.792-58.732 8.792zM1024 433.419c0-282.801-229.199-512-512-512s-512 229.199-512 512c0 232.835 156.845 434.671 377.524 494.055 47.578 15.159 93.498-9.979 107.537-52.801 14.976-45.681-12.564-89.615-71.448-103.015-184.269-41.973-139.816-274.239 98.387-274.239s282.656 232.266 98.392 274.238c-58.889 13.4-86.429 57.334-71.453 103.016 13.991 42.676 59.647 67.788 107.051 52.954 221.374-59.807 378.010-261.529 378.010-494.208zM634.455 886.547c-25.664 8.154-48.070-4.112-54.972-25.166-6.859-20.922 5.168-40.109 40.381-48.121 236.774-53.933 178.483-358.507-107.863-358.507s-344.637 304.574-107.859 358.508c35.208 8.012 47.236 27.198 40.376 48.12-6.903 21.054-29.308 33.32-54.972 25.166-203.092-54.672-346.879-239.704-346.879-453.128 0-259.237 210.097-469.333 469.333-469.333s469.333 210.097 469.333 469.333c0 213.424-143.787 398.456-346.879 453.128zM448 220.065c11.776 0 21.333-9.6 21.333-21.333 0-11.819-9.557-21.333-21.333-21.333s-21.333 9.515-21.333 21.333c0 11.733 9.557 21.333 21.333 21.333zM576 220.065c11.776 0 21.333-9.6 21.333-21.333 0-11.819-9.557-21.333-21.333-21.333s-21.333 9.515-21.333 21.333c0 11.733 9.557 21.333 21.333 21.333z" />
<glyph unicode="&#xe955;" glyph-name="child-products" data-tags="child-products" d="M863.074 435.292l-341.76 341.717c14.976 8.832 31.147 13.525 49.707 13.525 15.915 0 31.787-3.157 47.147-6.144 15.744-3.157 32.043-6.4 48.811-6.4 26.624 0 63.701 6.827 114.219 59.904 20.029 20.008 46.857 30.172 73.764 30.684 28.348 0.539 56.783-9.636 77.447-30.3 21.573-21.55 31.97-50.123 31.179-78.44-0.734-26.289-11.109-52.359-31.137-72.386-70.869-70.869-64.213-116.011-57.771-159.659 4.181-28.459 8.363-60.032-11.605-92.501zM604.169 271.866l92.032-92.032c3.755-3.755 8.021-6.656 12.117-9.941-16.981-41.344-41.088-79.488-73.429-111.829-64.469-64.512-150.187-100.011-241.365-100.011-91.221 0-176.896 35.499-241.365 100.011-65.609 65.63-98.861 151.568-99.757 237.784-0.921 88.603 32.332 177.5 99.757 244.947 32.341 32.384 70.485 56.491 111.787 73.472 3.285-4.053 6.144-8.405 9.941-12.16l92.075-92.075c-46.464-5.973-89.643-26.112-123.307-59.776-40.277-40.277-62.507-93.867-62.464-150.869 0-56.96 22.229-110.549 62.507-150.827 40.277-40.32 93.867-62.464 150.869-62.464 56.96 0 110.507 22.144 150.784 62.464 33.707 33.664 53.803 76.8 59.819 123.307zM454.882 783.106l422.357-422.357c20.181-20.181 31.275-47.019 31.232-75.563 0-28.459-11.093-55.168-31.275-75.264-20.053-20.139-46.848-31.232-75.392-31.232-28.459 0-55.253 11.093-75.392 31.275l-422.4 422.315c-41.557 41.557-41.557 109.227 0 150.827 40.448 40.363 110.677 40.277 150.869 0z" />
<glyph unicode="&#xe956;" glyph-name="child-products-line" data-tags="child-products-line" d="M773.136 265.372l-422.443 422.4c-24.704 25.173-24.704 65.707 0 90.496 25.216 25.131 65.749 25.131 90.496 0l422.4-422.443c25.173-24.747 25.173-65.28 0-90.453-24.747-24.747-65.28-24.747-90.453 0zM289.296 203.975c-66.603 66.944-66.603 174.891 0 241.451 66.987 66.56 174.933 66.56 241.493 0s66.56-174.507 0-241.451c-66.56-66.603-174.507-66.603-241.493 0zM198.842 113.479c-116.48 116.949-116.48 305.92 0 422.4 44.373 44.373 100.267 72.96 160.427 83.2l83.627-83.627c-64.853 10.24-133.547-9.813-183.467-59.733-83.627-83.2-83.627-218.411 0-301.653 83.2-83.627 218.027-83.627 301.653 0 49.92 49.92 69.973 118.187 59.733 183.467l83.627-83.627c-10.283-60.587-39.253-116.053-83.243-160.427-116.437-116.48-305.451-116.48-422.357 0zM803.856 808.946c24.32 24.363 64.853 24.363 90.027-0.427 24.747-25.173 24.747-65.707 0-90.453-69.547-69.547-81.493-117.333-70.016-194.091 4.309-29.483 4.736-39.723 1.323-52.096-1.323-3.84-3.029-7.68-5.163-11.904l-282.837 282.837c14.507 7.68 29.867 6.827 66.56-0.427 81.451-16.213 131.84-5.077 200.107 66.56zM850.32 429.639c7.723 9.813 12.843 20.053 15.829 30.72 5.504 20.48 5.12 34.133 0 69.547-9.813 64.427-0.853 99.029 58.027 157.867 20.053 20.48 30.72 46.507 31.104 73.387 0.469 27.776-9.771 56.32-31.104 77.653-20.053 19.627-45.653 29.867-71.68 31.147-28.629 0.853-57.6-9.387-79.36-31.147-57.173-60.544-93.013-67.84-160.896-54.613-53.717 10.24-75.904 10.667-106.197-10.24l-34.56 34.56c-41.813 41.813-109.227 41.813-151.040 0-41.387-41.813-41.387-109.227 0.427-151.040l2.56-2.56c-58.069-14.933-111.403-45.227-154.88-88.747-66.987-67.413-100.267-155.733-99.84-243.627 0.853-86.571 34.133-173.227 99.84-239.36 65.28-64.853 149.76-98.091 235.093-99.797 89.6-1.707 179.627 31.531 247.851 99.797 43.563 43.52 73.429 96.853 88.747 154.88l2.603-2.56c41.771-41.813 109.184-41.813 151.040 0 41.771 41.429 41.387 108.843 0 150.613l-43.563 43.52z" />
<glyph unicode="&#xe957;" glyph-name="children" data-tags="children categoryids:40-45-41-44" d="M426.649 917.355v-325.809l-210.206 297.948c57.49 31.084 122.256 49.173 188.894 49.173 11.747 0 21.312-9.564 21.312-21.312zM28.069 686.358l339.635-131.613h-367.704c0 45.43 10.292 89.821 28.069 131.613zM1002.584 810.693c11.851 0 21.416-9.564 21.416-21.416 0-11.747-9.564-21.312-21.312-21.312h-132.444l-161.657-687.068c34.307-11.020 59.465-42.935 59.465-80.88 0-47.094-38.257-85.351-85.351-85.351s-85.351 38.361-85.351 85.351c0 15.594 4.47 30.044 11.851 42.623h-322.378c7.381-12.579 11.851-27.029 11.851-42.623 0-47.094-38.361-85.351-85.351-85.351s-85.351 38.257-85.351 85.351c0 47.094 38.361 85.351 85.351 85.351h452.327l10.084 42.623h-526.45c-8.837 0-16.841 5.51-19.96 13.827l-127.974 341.299c-0.208 0.624 0 1.144-0.208 1.663-0.52 1.975-1.144 3.846-1.144 5.926v21.312h766.181l66.326 282.25c2.287 9.668 10.916 16.426 20.792 16.426h149.286zM179.954 867.247l188.686-267.176-321.546 124.647c31.708 56.138 77.866 105.519 132.86 142.528z" />
<glyph unicode="&#xe958;" glyph-name="children-line" data-tags="children-line categoryids:40-45-41-44" d="M256.024-0c0 23.546-19.12 42.667-42.665 42.667s-42.665-19.121-42.665-42.667c0-23.546 19.12-42.667 42.665-42.667s42.665 19.121 42.665 42.667zM298.689-0c0-47.11-38.222-85.333-85.331-85.333s-85.331 38.223-85.331 85.333c0 47.11 38.222 85.333 85.331 85.333s85.331-38.223 85.331-85.333zM725.343-0c0 23.546-19.12 42.667-42.665 42.667s-42.665-19.121-42.665-42.667c0-23.546 19.12-42.667 42.665-42.667s42.665 19.121 42.665 42.667zM608.771 42.667h-395.412c-11.782 0-21.333 9.551-21.333 21.333s9.551 21.333 21.333 21.333h452.423l166.792 708.886c2.267 9.637 10.866 16.447 20.766 16.447h149.329c11.782 0 21.333-9.551 21.333-21.333s-9.551-21.333-21.333-21.333h-132.433l-161.571-686.7c34.411-10.999 59.345-43.251 59.345-81.3 0-47.11-38.222-85.333-85.331-85.333s-85.331 38.223-85.331 85.333c0 15.54 4.159 30.113 11.424 42.667zM426.685 490.667c0-11.782-9.551-21.333-21.333-21.333h-383.988c-11.782 0-21.333 9.551-21.333 21.333v64c0 206.208 195.036 384 405.321 384 11.782 0 21.333-9.551 21.333-21.333v-426.667zM384.020 512v383.315c-179.288-11.486-341.323-165.841-341.323-340.649v-42.667h341.323zM405.799 469.334c-0.286-0.006-0.571-0.006-0.856 0h-352.808l111.996-298.667h538.628c11.782 0 21.333-9.551 21.333-21.333s-9.551-21.333-21.333-21.333h-553.412c-8.892 0-16.852 5.516-19.974 13.843l-127.996 341.333c-5.23 13.947 5.080 28.824 19.974 28.824h306.217l-282.911 167.806c-10.133 6.010-13.476 19.098-7.465 29.232s19.097 13.476 29.231 7.466l284.892-168.981-160.202 304.321c-5.488 10.426-1.486 23.327 8.939 28.815s23.326 1.486 28.814-8.939l189.366-359.719h363.972c11.782 0 21.333-9.551 21.333-21.333s-9.551-21.333-21.333-21.333h-376.404z" />
<glyph unicode="&#xe959;" glyph-name="cleaning" data-tags="cleaning categoryid:20" d="M949.328 758c11.776 0 21.333-9.515 21.333-21.333 0-11.776-9.557-21.333-21.333-21.333h-170.667c-11.776 0-21.333 9.557-21.333 21.333 0 11.819 9.557 21.333 21.333 21.333h170.667zM937.083 575.25c10.283-5.717 13.952-18.688 8.192-28.971-3.883-6.997-11.136-10.965-18.603-10.965-3.541 0-7.125 0.853-10.411 2.731l-169.344 94.677c-10.283 5.717-13.952 18.731-8.192 29.013 5.717 10.325 18.731 13.952 29.013 8.192l169.344-94.677zM764.787 802.002c-11.349-4.096-23.381 1.621-27.477 12.544-4.096 11.051 1.536 23.339 12.544 27.435l168.021 62.677c11.008 4.096 23.339-1.493 27.435-12.501 4.139-11.051-1.493-23.381-12.501-27.477l-168.021-62.677zM650.662 800.667c11.776 0 21.333-9.515 21.333-21.333v-42.667c0-11.776-9.557-21.333-21.333-21.333h-21.333v-42.667c0-5.333-2.005-10.496-5.632-14.379l-58.667-64c-4.053-4.48-9.685-6.955-15.701-6.955h-22.699c-0.64-36.267 7.68-114.603 90.197-128.256 11.605-1.963 19.456-12.971 17.536-24.533-1.749-10.496-10.795-17.877-20.992-17.877-1.152 0-2.389 0.085-3.541 0.299-102.869 17.109-127.275 108.459-126.165 170.368h-409.003c-7.253 0-13.995 3.669-17.92 9.771s-4.48 13.696-1.536 20.352l96 213.333c3.456 7.637 11.093 12.544 19.456 12.544h437.333c11.776 0 21.333-9.515 21.333-21.333v-21.333h21.333zM433.535 544.667l175.787-452.011c12.757-32.896 8.491-69.803-11.349-98.901-19.883-29.056-52.779-46.421-88.064-46.421h-326.4c-31.915 0-61.909 14.165-82.304 38.784-20.309 24.704-28.459 56.832-22.4 88.277l128.683 470.272h226.048z" />
<glyph unicode="&#xe95c;" glyph-name="Hotels-line" data-tags="Hotels-line categoryid:98" d="M54.091 42.667h-32.758c-11.782 0-21.333 9.551-21.333 21.333s9.551 21.333 21.333 21.333h64v576c0 106.033 85.967 192 192 192h192.341v64c0 11.782 9.551 21.333 21.333 21.333s21.333-9.551 21.333-21.333v-64h234.325c106.033 0 192-85.967 192-192v-576h62.677c11.782 0 21.333-9.551 21.333-21.333s-9.551-21.333-21.333-21.333h-31.435c7.265-12.553 11.425-27.126 11.425-42.667 0-47.11-38.223-85.333-85.333-85.333s-85.333 38.223-85.333 85.333c0 15.54 4.159 30.113 11.425 42.667h-620.183c7.265-12.553 11.425-27.126 11.425-42.667 0-47.11-38.223-85.333-85.333-85.333s-85.333 38.223-85.333 85.333c0 15.54 4.159 30.113 11.425 42.667zM234.66 85.334c-13.391 17.827-21.327 39.986-21.327 64v170.667c0 58.886 47.781 106.667 106.667 106.667h64v21.333c0 58.715 47.951 106.667 106.667 106.667h42.667c58.715 0 106.667-47.951 106.667-106.667v-21.333h64c58.916 0 106.667-47.768 106.667-106.667v-170.667c0-24.017-7.929-46.175-21.314-64h106.648v576c0 82.469-66.865 149.333-149.333 149.333h-234.325v-85.333h106.325c11.782 0 21.333-9.551 21.333-21.333s-9.551-21.333-21.333-21.333h-255.317c-11.782 0-21.333 9.551-21.333 21.333s9.551 21.333 21.333 21.333h106.325v85.333h-192.341c-82.469 0-149.333-66.865-149.333-149.333v-576h106.66zM597.333 426.667v21.333c0 35.151-28.849 64-64 64h-42.667c-35.151 0-64-28.849-64-64v-21.333h170.667zM768 149.334v170.667c0 35.338-28.652 64-64 64h-384c-35.322 0-64-28.678-64-64v-170.667c0-35.348 28.662-64 64-64h384c35.365 0 64 28.635 64 64zM938.667-0c0 23.546-19.121 42.667-42.667 42.667s-42.667-19.121-42.667-42.667c0-23.546 19.121-42.667 42.667-42.667s42.667 19.121 42.667 42.667zM170.667-0c0 23.546-19.121 42.667-42.667 42.667s-42.667-19.121-42.667-42.667c0-23.546 19.121-42.667 42.667-42.667s42.667 19.121 42.667 42.667z" />
<glyph unicode="&#xe95d;" glyph-name="Hotels" data-tags="Hotels categoryid:98" d="M896.017 85.334h-192c58.795 0 106.667 47.829 106.667 106.667v170.667c0 58.795-47.872 106.667-106.667 106.667h-64v21.333c0 58.795-47.872 106.667-106.667 106.667h-42.667c-58.795 0-106.667-47.872-106.667-106.667v-21.333h-64c-58.795 0-106.667-47.872-106.667-106.667v-170.667c0-58.837 47.872-106.667 106.667-106.667h-192v576c0 82.347 66.987 149.333 149.333 149.333h192.171l0.128-85.333h-106.283c-11.819 0-21.333-9.557-21.333-21.333s9.515-21.333 21.333-21.333h255.317c11.776 0 21.333 9.557 21.333 21.333s-9.557 21.333-21.333 21.333h-106.667l-0.128 85.333h234.795c82.347 0 149.333-66.987 149.333-149.333v-576zM426.684 469.334v21.333c0 35.285 28.715 64 64 64h42.667c35.285 0 64-28.715 64-64v-21.333h-170.667zM1001.361 85.334h-62.677v576c0 105.856-86.144 192-192 192h-234.667l-0.085 64c0.043 11.776-9.472 21.333-21.248 21.333h-0.043c-11.776-0.043-21.333-9.6-21.291-21.376l0.085-63.957h-192.085c-105.856 0-192-86.144-192-192v-576h-64c-11.776 0-21.333-9.557-21.333-21.333s9.557-21.333 21.333-21.333h33.195c-7.339-12.629-11.861-27.051-11.861-42.667 0-47.061 38.272-85.333 85.333-85.333s85.333 38.272 85.333 85.333c0 15.616-4.523 30.037-11.861 42.667h621.056c-7.339-12.629-11.861-27.051-11.861-42.667 0-47.061 38.272-85.333 85.333-85.333s85.333 38.272 85.333 85.333c0 15.616-4.523 30.037-11.861 42.667h31.872c11.776 0 21.333 9.557 21.333 21.333s-9.557 21.333-21.333 21.333v0z" />
<glyph unicode="&#xe95e;" glyph-name="cleaning-line" data-tags="cleaning-line categoryid:20" d="M226.561 614.291c2.538 9.272 10.963 15.701 20.576 15.701h138.667c8.798 0 16.694-5.402 19.883-13.602l203.647-523.731c12.786-32.871 8.539-69.794-11.365-98.929-19.883-29.051-52.832-46.404-88.048-46.404h-326.4c-31.827 0-61.966 14.226-82.296 38.825-20.248 24.564-28.431 56.825-22.035 89.772l147.371 538.368zM120.717 66.265c-3.628-18.879 1.281-38.235 13.414-52.954 12.217-14.782 30.302-23.318 49.391-23.318h326.4c21.143 0 40.913 10.412 52.827 27.821 11.956 17.501 14.502 39.633 6.82 59.381l-198.359 510.131h-107.796l-142.697-521.061zM151.225 830.747c3.445 7.655 11.059 12.579 19.454 12.579h437.333c11.782 0 21.333-9.551 21.333-21.333v-149.333c0-5.337-2.001-10.481-5.607-14.415l-58.667-64c-4.041-4.408-9.746-6.918-15.726-6.918h-474.667c-15.481 0-25.807 15.971-19.454 30.088l96 213.333zM107.673 629.992h432.288l46.718 50.965v119.702h-402.206l-76.8-170.667zM485.56 611.676c1.666 11.664 12.472 19.768 24.136 18.102s19.768-12.472 18.102-24.136c-0.107-0.748-0.308-2.515-0.522-5.16-1.805-22.334-0.072-48.007 7.752-71.74 12.507-37.939 37.894-62.386 81.825-69.707 11.622-1.937 19.473-12.928 17.536-24.55s-12.928-19.473-24.55-17.536c-60.59 10.098-98.126 46.243-115.332 98.435-9.889 29.996-11.982 61.015-9.759 88.535 0.286 3.543 0.585 6.172 0.812 7.757zM778.679 715.325c-11.782 0-21.333 9.551-21.333 21.333s9.551 21.333 21.333 21.333h170.667c11.782 0 21.333-9.551 21.333-21.333s-9.551-21.333-21.333-21.333h-170.667zM746.935 632.705c-10.284 5.75-13.96 18.747-8.21 29.031s18.747 13.96 29.031 8.21l169.344-94.677c10.284-5.75 13.96-18.747 8.21-29.031s-18.747-13.96-29.031-8.21l-169.344 94.677zM764.802 802.004c-11.039-4.118-23.326 1.493-27.444 12.532s1.493 23.326 12.532 27.444l168.021 62.677c11.039 4.118 23.326-1.493 27.444-12.532s-1.493-23.326-12.532-27.444l-168.021-62.677zM650.679 715.325h-42.667c-11.782 0-21.333 9.551-21.333 21.333v42.667c0 11.782 9.551 21.333 21.333 21.333h42.667c11.782 0 21.333-9.551 21.333-21.333v-42.667c0-11.782-9.551-21.333-21.333-21.333z" />
<glyph unicode="&#xe95f;" glyph-name="clothing" data-tags="clothing categoryid:69" d="M1017.75 591.081l-172.195 172.174c-43.752 43.642-104.171 68.745-165.944 68.745h-335.222c-62.711 0-121.567-24.373-165.944-68.745l-172.195-172.174c-8.334-8.333-8.334-21.873 0-30.206l128.026-128.011c8.334-8.333 21.876-8.333 30.21 0l91.566 70.203v-460.381c0-11.77 9.584-21.353 21.355-21.353h469.29c11.771 0 21.355 9.583 21.355 21.353v460.381l91.566-70.203c8.334-8.333 21.876-8.333 30.21 0l127.922 128.115c3.958 3.958 6.25 9.374 6.25 15.103 0 5.625-2.292 11.041-6.25 14.999zM512 703.989c-51.565 0-94.587 36.664-104.483 85.306h209.071c-10-48.538-53.127-85.306-104.588-85.306z" />
<glyph unicode="&#xe960;" glyph-name="clothing-line" data-tags="clothing-line categoryid:69" d="M364.178 789.334h-19.858c-50.906 0-99.713-20.229-135.742-56.258l-157.075-157.075 99.139-99.139 113.034 94.195c13.895 11.579 34.991 1.698 34.991-16.389v-490.667h426.667v490.667c0 18.087 21.096 27.968 34.991 16.389l113.034-94.195 99.137 99.137-157.116 157.077c-36.021 36.021-84.867 56.258-135.784 56.258h-19.774c-10.355-72.364-72.61-128-147.82-128-75.265 0-137.478 55.617-147.822 128zM407.464 789.334c9.875-48.702 52.9-85.333 104.536-85.333 51.585 0 94.644 36.652 104.532 85.333h-209.067zM768 509.119v-466.452c0-11.782-9.551-21.333-21.333-21.333h-469.333c-11.782 0-21.333 9.551-21.333 21.333v466.452l-93.009-77.508c-8.476-7.064-20.94-6.498-28.742 1.304l-128 128c-8.331 8.331-8.331 21.839 0 30.17l172.16 172.16c44.028 44.028 103.686 68.755 165.912 68.755h335.275c62.235 0 121.933-24.733 165.952-68.753l172.203-172.16c8.333-8.331 8.334-21.84 0.002-30.172l-128-128c-7.802-7.802-20.266-8.367-28.742-1.304l-93.009 77.508z" />
</font>
</defs>
</svg>
